<svg width="156" height="91" viewBox="0 0 156 91" fill="none" xmlns="http://www.w3.org/2000/svg">
<path d="M17.4263 78.3433C18.1626 77.522 18.4458 76.6157 18.2759 75.6245C18.106 74.605 17.6245 73.6421 16.8315 72.7358C14.0562 69.6489 11.918 66.1089 10.417 62.1157C8.94434 58.0942 8.20801 53.832 8.20801 49.3291C8.20801 44.7979 8.94434 40.5356 10.417 36.5425C11.8896 32.5493 14.0278 29.0234 16.8315 25.9648C17.6245 25.0303 18.106 24.0674 18.2759 23.0762C18.4458 22.0566 18.1626 21.1362 17.4263 20.3149C16.6899 19.437 15.7412 18.998 14.5801 18.998C13.4473 18.9697 12.4136 19.4795 11.479 20.5273C7.99561 24.2373 5.30518 28.5986 3.40771 33.6113C1.53857 38.5957 0.604004 43.835 0.604004 49.3291C0.604004 54.8516 1.53857 60.0908 3.40771 65.0469C5.27686 70.0029 7.96729 74.3784 11.479 78.1733C12.4419 79.1646 13.4897 79.6743 14.6226 79.7026C15.7554 79.7026 16.6899 79.2495 17.4263 78.3433ZM29.8306 66.1938C30.5386 65.3726 30.7935 64.4663 30.5952 63.4751C30.4253 62.4839 30.0005 61.521 29.3208 60.5864C28.1313 59.0854 27.2251 57.3579 26.6021 55.4038C26.0073 53.4497 25.71 51.4248 25.71 49.3291C25.71 47.2334 26.0073 45.2085 26.6021 43.2544C27.2251 41.272 28.1313 39.5444 29.3208 38.0718C30.0005 37.1089 30.4253 36.146 30.5952 35.1831C30.7935 34.1919 30.5386 33.2856 29.8306 32.4644C29.0942 31.5864 28.1172 31.1475 26.8994 31.1475C25.71 31.1475 24.6763 31.6714 23.7983 32.7192C21.9858 34.9282 20.584 37.4629 19.5928 40.3232C18.6016 43.1836 18.106 46.1855 18.106 49.3291C18.106 52.4727 18.6016 55.4746 19.5928 58.335C20.584 61.1953 21.9858 63.7158 23.7983 65.8965C24.6763 66.9443 25.71 67.4824 26.8994 67.5107C28.1172 67.5107 29.0942 67.0718 29.8306 66.1938ZM138.368 78.3433C139.133 79.2495 140.082 79.7026 141.214 79.7026C142.375 79.6743 143.438 79.1646 144.4 78.1733C147.912 74.3784 150.603 70.0029 152.472 65.0469C154.341 60.0908 155.275 54.8516 155.275 49.3291C155.275 43.835 154.327 38.5957 152.429 33.6113C150.532 28.5986 147.855 24.2373 144.4 20.5273C143.438 19.4795 142.375 18.9697 141.214 18.998C140.082 18.998 139.133 19.437 138.368 20.3149C137.66 21.1362 137.377 22.0566 137.519 23.0762C137.688 24.0674 138.198 25.0303 139.048 25.9648C141.795 29.0234 143.919 32.5493 145.42 36.5425C146.921 40.5356 147.671 44.7979 147.671 49.3291C147.671 53.832 146.921 58.0942 145.42 62.1157C143.919 66.1089 141.795 69.6489 139.048 72.7358C138.227 73.6421 137.731 74.605 137.561 75.6245C137.391 76.6157 137.66 77.522 138.368 78.3433ZM126.006 66.1938C126.743 67.0718 127.706 67.5107 128.895 67.5107C130.113 67.4824 131.161 66.9443 132.039 65.8965C133.851 63.7158 135.253 61.1953 136.244 58.335C137.235 55.4746 137.731 52.4727 137.731 49.3291C137.731 46.1855 137.235 43.1836 136.244 40.3232C135.253 37.4629 133.851 34.9282 132.039 32.7192C131.161 31.6714 130.113 31.1475 128.895 31.1475C127.706 31.1475 126.743 31.5864 126.006 32.4644C125.298 33.2856 125.029 34.1919 125.199 35.1831C125.397 36.146 125.836 37.1089 126.516 38.0718C127.706 39.5444 128.598 41.272 129.192 43.2544C129.815 45.2085 130.127 47.2334 130.127 49.3291C130.127 51.4248 129.815 53.4497 129.192 55.4038C128.598 57.3579 127.706 59.0854 126.516 60.5864C125.836 61.521 125.397 62.4839 125.199 63.4751C125.029 64.4663 125.298 65.3726 126.006 66.1938ZM77.9185 90.1104C83.5542 90.1104 88.8501 89.0483 93.8062 86.9243C98.7622 84.8286 103.109 81.9116 106.848 78.1733C110.586 74.4067 113.517 70.0596 115.641 65.1318C117.765 60.1758 118.827 54.8657 118.827 49.2017C118.827 43.5659 117.765 38.2842 115.641 33.3564C113.517 28.4004 110.586 24.0532 106.848 20.3149C103.109 16.5767 98.7622 13.6455 93.8062 11.5215C88.8501 9.39746 83.5542 8.33545 77.9185 8.33545C72.2544 8.33545 66.9585 9.39746 62.0308 11.5215C57.103 13.6455 52.7559 16.5767 48.9893 20.3149C45.251 24.0532 42.3198 28.4004 40.1958 33.3564C38.0718 38.2842 37.0098 43.5659 37.0098 49.2017C37.0098 54.8657 38.0718 60.1758 40.1958 65.1318C42.3198 70.0596 45.251 74.4067 48.9893 78.1733C52.7559 81.9116 57.103 84.8286 62.0308 86.9243C66.9585 89.0483 72.2544 90.1104 77.9185 90.1104ZM59.397 54.4692C58.4907 54.4692 57.7119 54.1577 57.0605 53.5347C56.4375 52.8833 56.126 52.0903 56.126 51.1558C56.126 50.2495 56.4375 49.4849 57.0605 48.8618C57.7119 48.2104 58.4907 47.8848 59.397 47.8848H74.605V26.3896C74.605 25.4834 74.9165 24.7188 75.5396 24.0957C76.1909 23.4443 76.9697 23.1187 77.876 23.1187C78.8105 23.1187 79.5894 23.4443 80.2124 24.0957C80.8638 24.7188 81.1895 25.4834 81.1895 26.3896V51.1558C81.1895 52.0903 80.8638 52.8833 80.2124 53.5347C79.5894 54.1577 78.8105 54.4692 77.876 54.4692H59.397ZM42.4473 19.2954C42.7871 19.2954 43.0845 19.2529 43.3394 19.168C43.5942 19.0547 43.8774 18.8848 44.189 18.6582L59.1846 7.69824C59.8926 7.16016 60.2466 6.50879 60.2466 5.74414C60.2466 4.83789 59.8501 4.03076 59.0571 3.32275C58.1509 2.55811 57.0181 1.97754 55.6587 1.58105C54.3276 1.18457 52.9824 0.986328 51.623 0.986328C49.3291 0.986328 47.2476 1.52441 45.3784 2.60059C43.5093 3.67676 42.0083 5.14941 40.8755 7.01855C39.771 8.85937 39.2188 10.8984 39.2188 13.1357C39.2188 13.9854 39.2896 14.8066 39.4312 15.5996C39.5728 16.3643 39.7568 17.0015 39.9834 17.5112C40.21 18.0493 40.5356 18.4883 40.9604 18.8281C41.4136 19.1396 41.9092 19.2954 42.4473 19.2954ZM113.39 19.2954C113.928 19.2954 114.409 19.1255 114.834 18.7856C115.287 18.4458 115.641 18.021 115.896 17.5112C116.123 17.0015 116.292 16.3643 116.406 15.5996C116.547 14.8066 116.618 13.9854 116.618 13.1357C116.618 10.8984 116.066 8.85937 114.961 7.01855C113.857 5.14941 112.356 3.67676 110.458 2.60059C108.589 1.52441 106.508 0.986328 104.214 0.986328C102.854 0.986328 101.495 1.18457 100.136 1.58105C98.8047 1.97754 97.7002 2.55811 96.8223 3.32275C95.9727 4.03076 95.5479 4.83789 95.5479 5.74414C95.5479 6.50879 95.9302 7.16016 96.6948 7.69824L111.648 18.6582C111.959 18.8848 112.243 19.0547 112.498 19.168C112.752 19.2529 113.05 19.2954 113.39 19.2954ZM42.0225 89.4307C42.7588 90.167 43.6367 90.521 44.6562 90.4927C45.6758 90.4644 46.5537 90.082 47.29 89.3457L55.7012 81.0195L50.561 75.8369L42.0649 84.333C41.3286 85.041 40.9604 85.8906 40.9604 86.8818C40.9604 87.873 41.3145 88.7227 42.0225 89.4307ZM113.814 89.4307C114.522 88.7227 114.876 87.873 114.876 86.8818C114.876 85.8906 114.508 85.041 113.772 84.333L105.318 75.8369L100.136 81.0195L108.547 89.3457C109.312 90.082 110.189 90.4644 111.181 90.4927C112.2 90.521 113.078 90.167 113.814 89.4307Z" fill="black"/>
</svg>
