<svg width="4482" height="1024" viewBox="0 0 4482 1024" fill="none" xmlns="http://www.w3.org/2000/svg">
<rect width="1024" height="1024" rx="50" fill="url(#paint0_linear_1124_18521)"/>
<path d="M316.437 313.531C320.823 309.317 323.016 307.21 325.545 305.695C327.883 304.294 330.427 303.27 333.083 302.66C335.956 302 338.997 302 345.08 302H765.312C797.051 302 812.921 302 820.185 308.13C826.768 313.686 830.172 322.142 829.275 330.709C828.284 340.162 816.841 351.158 793.955 373.149L766.563 399.469C762.177 403.683 759.984 405.79 757.455 407.305C755.117 408.706 752.573 409.73 749.917 410.34C747.044 411 744.003 411 737.92 411H305.84C277.762 411 263.724 411 257.298 405.577C251.474 400.662 248.463 393.182 249.257 385.604C250.133 377.241 260.256 367.514 280.502 348.061L316.437 313.531Z" fill="url(#paint1_linear_1124_18521)"/>
<path d="M256.437 623.531C260.823 619.317 263.016 617.21 265.545 615.695C267.883 614.294 270.427 613.27 273.083 612.66C275.956 612 278.997 612 285.08 612H705.312C737.051 612 752.921 612 760.185 618.13C766.768 623.686 770.172 632.142 769.275 640.709C768.284 650.162 756.841 661.158 733.955 683.149L706.563 709.469C702.177 713.683 699.984 715.79 697.455 717.305C695.117 718.706 692.573 719.73 689.917 720.34C687.044 721 684.003 721 677.92 721H245.84C217.762 721 203.724 721 197.298 715.577C191.474 710.662 188.463 703.182 189.257 695.604C190.133 687.241 200.256 677.514 220.502 658.061L256.437 623.531Z" fill="url(#paint2_linear_1124_18521)"/>
<path d="M286.437 468.531C290.823 464.317 293.016 462.21 295.545 460.695C297.883 459.294 300.427 458.27 303.083 457.66C305.956 457 308.997 457 315.08 457H735.312C767.051 457 782.921 457 790.185 463.13C796.768 468.686 800.172 477.142 799.275 485.709C798.284 495.162 786.841 506.158 763.955 528.149L736.563 554.469C732.177 558.683 729.984 560.79 727.455 562.305C725.117 563.706 722.573 564.73 719.917 565.34C717.044 566 714.003 566 707.92 566H275.84C247.762 566 233.724 566 227.298 560.577C221.474 555.662 218.463 548.182 219.257 540.604C220.133 532.241 230.256 522.514 250.502 503.061L286.437 468.531Z" fill="url(#paint3_linear_1124_18521)"/>
<path d="M1496.18 413.594C1494.2 394.986 1485.82 380.497 1471.04 370.128C1456.41 359.759 1437.38 354.574 1413.94 354.574C1397.46 354.574 1383.33 357.06 1371.54 362.031C1359.75 367.003 1350.73 373.75 1344.48 382.273C1338.23 390.795 1335.03 400.526 1334.89 411.463C1334.89 420.554 1336.95 428.437 1341.07 435.114C1345.33 441.79 1351.09 447.472 1358.33 452.159C1365.57 456.705 1373.6 460.54 1382.41 463.665C1391.21 466.79 1400.09 469.418 1409.04 471.548L1449.95 481.776C1466.43 485.611 1482.26 490.795 1497.46 497.33C1512.8 503.864 1526.51 512.102 1538.59 522.045C1550.8 531.989 1560.46 543.991 1567.56 558.054C1574.66 572.116 1578.22 588.594 1578.22 607.486C1578.22 633.054 1571.68 655.568 1558.61 675.028C1545.55 694.347 1526.65 709.474 1501.94 720.412C1477.36 731.207 1447.61 736.605 1412.66 736.605C1378.71 736.605 1349.24 731.349 1324.24 720.838C1299.38 710.327 1279.92 694.986 1265.86 674.815C1251.94 654.645 1244.41 630.071 1243.27 601.094H1321.04C1322.18 616.293 1326.87 628.935 1335.11 639.02C1343.34 649.105 1354.07 656.634 1367.28 661.605C1380.63 666.577 1395.55 669.062 1412.02 669.062C1429.21 669.062 1444.27 666.506 1457.19 661.392C1470.26 656.136 1480.49 648.892 1487.88 639.659C1495.26 630.284 1499.03 619.347 1499.17 606.847C1499.03 595.483 1495.69 586.108 1489.15 578.722C1482.62 571.193 1473.46 564.943 1461.67 559.972C1450.02 554.858 1436.38 550.312 1420.76 546.335L1371.11 533.551C1335.18 524.318 1306.77 510.327 1285.89 491.577C1265.15 472.685 1254.78 447.614 1254.78 416.364C1254.78 390.653 1261.74 368.139 1275.66 348.821C1289.72 329.503 1308.83 314.517 1332.97 303.864C1357.12 293.068 1384.47 287.67 1415.01 287.67C1445.97 287.67 1473.1 293.068 1496.4 303.864C1519.84 314.517 1538.23 329.361 1551.58 348.395C1564.93 367.287 1571.82 389.02 1572.25 413.594H1496.18ZM1739.46 736.605C1718.72 736.605 1700.04 732.912 1683.42 725.526C1666.94 717.997 1653.87 706.918 1644.21 692.287C1634.7 677.656 1629.94 659.616 1629.94 638.168C1629.94 619.702 1633.35 604.432 1640.17 592.358C1646.98 580.284 1656.29 570.625 1668.08 563.381C1679.87 556.136 1693.15 550.668 1707.92 546.974C1722.84 543.139 1738.25 540.369 1754.16 538.665C1773.33 536.676 1788.89 534.901 1800.82 533.338C1812.75 531.634 1821.42 529.077 1826.81 525.668C1832.35 522.116 1835.12 516.648 1835.12 509.261V507.983C1835.12 491.932 1830.36 479.503 1820.85 470.696C1811.33 461.889 1797.62 457.486 1779.73 457.486C1760.83 457.486 1745.85 461.605 1734.77 469.844C1723.83 478.082 1716.44 487.812 1712.61 499.034L1640.59 488.807C1646.27 468.92 1655.65 452.301 1668.72 438.949C1681.78 425.455 1697.76 415.369 1716.66 408.693C1735.55 401.875 1756.43 398.466 1779.3 398.466C1795.07 398.466 1810.76 400.312 1826.39 404.006C1842.01 407.699 1856.29 413.807 1869.21 422.33C1882.14 430.71 1892.51 442.145 1900.32 456.634C1908.28 471.122 1912.25 489.233 1912.25 510.966V730H1838.11V685.043H1835.55C1830.86 694.134 1824.26 702.656 1815.73 710.611C1807.35 718.423 1796.77 724.744 1783.99 729.574C1771.34 734.261 1756.5 736.605 1739.46 736.605ZM1759.48 679.929C1774.97 679.929 1788.39 676.875 1799.75 670.767C1811.12 664.517 1819.85 656.278 1825.96 646.051C1832.21 635.824 1835.34 624.673 1835.34 612.599V574.034C1832.92 576.023 1828.8 577.869 1822.98 579.574C1817.3 581.278 1810.9 582.77 1803.8 584.048C1796.7 585.327 1789.67 586.463 1782.71 587.457C1775.75 588.452 1769.71 589.304 1764.6 590.014C1753.09 591.577 1742.79 594.134 1733.7 597.685C1724.61 601.236 1717.44 606.207 1712.18 612.599C1706.93 618.849 1704.3 626.946 1704.3 636.889C1704.3 651.094 1709.48 661.818 1719.85 669.062C1730.22 676.307 1743.43 679.929 1759.48 679.929ZM2198.4 592.358V402.727H2275.53V730H2200.75V671.832H2197.34C2189.95 690.156 2177.81 705.142 2160.9 716.79C2144.14 728.437 2123.48 734.261 2098.9 734.261C2077.45 734.261 2058.49 729.503 2042.01 719.986C2025.68 710.327 2012.89 696.335 2003.66 678.011C1994.43 659.545 1989.81 637.244 1989.81 611.108V402.727H2066.94V599.176C2066.94 619.915 2072.62 636.392 2083.99 648.608C2095.35 660.824 2110.26 666.932 2128.73 666.932C2140.09 666.932 2151.1 664.162 2161.76 658.622C2172.41 653.082 2181.15 644.844 2187.96 633.906C2194.92 622.827 2198.4 608.977 2198.4 592.358ZM2431.98 538.239V730H2354.85V402.727H2428.57V458.338H2432.41C2439.93 440.014 2451.94 425.455 2468.41 414.659C2485.03 403.864 2505.56 398.466 2529.99 398.466C2552.58 398.466 2572.25 403.295 2589.01 412.955C2605.91 422.614 2618.98 436.605 2628.22 454.929C2637.59 473.253 2642.21 495.483 2642.07 521.619V730H2564.93V533.551C2564.93 511.676 2559.25 494.56 2547.89 482.202C2536.67 469.844 2521.11 463.665 2501.23 463.665C2487.73 463.665 2475.73 466.648 2465.22 472.614C2454.85 478.437 2446.68 486.889 2440.72 497.969C2434.89 509.048 2431.98 522.472 2431.98 538.239ZM2814.65 736.605C2793.91 736.605 2775.23 732.912 2758.61 725.526C2742.14 717.997 2729.07 706.918 2719.41 692.287C2709.89 677.656 2705.13 659.616 2705.13 638.168C2705.13 619.702 2708.54 604.432 2715.36 592.358C2722.18 580.284 2731.48 570.625 2743.27 563.381C2755.06 556.136 2768.34 550.668 2783.12 546.974C2798.03 543.139 2813.44 540.369 2829.35 538.665C2848.53 536.676 2864.08 534.901 2876.01 533.338C2887.95 531.634 2896.61 529.077 2902.01 525.668C2907.55 522.116 2910.32 516.648 2910.32 509.261V507.983C2910.32 491.932 2905.56 479.503 2896.04 470.696C2886.53 461.889 2872.82 457.486 2854.92 457.486C2836.03 457.486 2821.04 461.605 2809.96 469.844C2799.03 478.082 2791.64 487.812 2787.8 499.034L2715.79 488.807C2721.47 468.92 2730.84 452.301 2743.91 438.949C2756.98 425.455 2772.96 415.369 2791.85 408.693C2810.74 401.875 2831.63 398.466 2854.49 398.466C2870.26 398.466 2885.96 400.312 2901.58 404.006C2917.21 407.699 2931.48 413.807 2944.41 422.33C2957.34 430.71 2967.7 442.145 2975.52 456.634C2983.47 471.122 2987.45 489.233 2987.45 510.966V730H2913.3V685.043H2910.74C2906.06 694.134 2899.45 702.656 2890.93 710.611C2882.55 718.423 2871.97 724.744 2859.18 729.574C2846.54 734.261 2831.7 736.605 2814.65 736.605ZM2834.68 679.929C2850.16 679.929 2863.59 676.875 2874.95 670.767C2886.31 664.517 2895.05 656.278 2901.16 646.051C2907.41 635.824 2910.53 624.673 2910.53 612.599V574.034C2908.12 576.023 2904 577.869 2898.17 579.574C2892.49 581.278 2886.1 582.77 2879 584.048C2871.89 585.327 2864.86 586.463 2857.9 587.457C2850.94 588.452 2844.91 589.304 2839.79 590.014C2828.29 591.577 2817.99 594.134 2808.9 597.685C2799.81 601.236 2792.63 606.207 2787.38 612.599C2782.12 618.849 2779.49 626.946 2779.49 636.889C2779.49 651.094 2784.68 661.818 2795.05 669.062C2805.42 676.307 2818.63 679.929 2834.68 679.929ZM3021.7 359.901V293.636H3369.85V359.901H3234.98V730H3156.57V359.901H3021.7ZM3433.56 730V402.727H3510.69V730H3433.56ZM3472.34 356.278C3460.12 356.278 3449.61 352.23 3440.8 344.134C3432 335.895 3427.59 326.023 3427.59 314.517C3427.59 302.869 3432 292.997 3440.8 284.901C3449.61 276.662 3460.12 272.543 3472.34 272.543C3484.7 272.543 3495.21 276.662 3503.87 284.901C3512.68 292.997 3517.08 302.869 3517.08 314.517C3517.08 326.023 3512.68 335.895 3503.87 344.134C3495.21 352.23 3484.7 356.278 3472.34 356.278ZM3590.01 730V402.727H3663.73V458.338H3667.56C3674.38 439.588 3685.67 424.957 3701.44 414.446C3717.21 403.793 3736.03 398.466 3757.9 398.466C3780.06 398.466 3798.74 403.864 3813.94 414.659C3829.28 425.312 3840.08 439.872 3846.33 458.338H3849.74C3856.98 440.156 3869.2 425.668 3886.38 414.872C3903.71 403.935 3924.24 398.466 3947.96 398.466C3978.07 398.466 4002.65 407.983 4021.68 427.017C4040.72 446.051 4050.23 473.821 4050.23 510.327V730H3972.89V522.259C3972.89 501.946 3967.49 487.102 3956.7 477.727C3945.9 468.21 3932.69 463.452 3917.07 463.452C3898.46 463.452 3883.9 469.276 3873.39 480.923C3863.02 492.429 3857.83 507.415 3857.83 525.881V730H3782.19V519.062C3782.19 502.159 3777.08 488.665 3766.85 478.58C3756.77 468.494 3743.56 463.452 3727.22 463.452C3716.14 463.452 3706.06 466.293 3696.97 471.974C3687.88 477.514 3680.63 485.398 3675.23 495.625C3669.84 505.71 3667.14 517.5 3667.14 530.994V730H3590.01ZM4273.37 736.392C4240.56 736.392 4212.22 729.574 4188.35 715.938C4164.63 702.159 4146.38 682.699 4133.6 657.557C4120.81 632.273 4114.42 602.514 4114.42 568.281C4114.42 534.616 4120.81 505.071 4133.6 479.645C4146.52 454.077 4164.56 434.19 4187.72 419.986C4210.87 405.639 4238.07 398.466 4269.32 398.466C4289.49 398.466 4308.52 401.733 4326.42 408.267C4344.46 414.659 4360.37 424.602 4374.15 438.097C4388.07 451.591 4399.01 468.778 4406.96 489.659C4414.92 510.398 4418.89 535.114 4418.89 563.807V587.457H4150.64V535.469H4344.96C4344.82 520.696 4341.62 507.557 4335.37 496.051C4329.12 484.403 4320.39 475.241 4309.16 468.565C4298.08 461.889 4285.16 458.551 4270.39 458.551C4254.62 458.551 4240.77 462.386 4228.84 470.057C4216.91 477.585 4207.6 487.528 4200.93 499.886C4194.39 512.102 4191.05 525.526 4190.91 540.156V585.54C4190.91 604.574 4194.39 620.909 4201.35 634.545C4208.31 648.04 4218.04 658.409 4230.54 665.653C4243.04 672.756 4257.67 676.307 4274.43 676.307C4285.66 676.307 4295.81 674.744 4304.9 671.619C4313.99 668.352 4321.88 663.594 4328.55 657.344C4335.23 651.094 4340.27 643.352 4343.68 634.119L4415.7 642.216C4411.15 661.25 4402.49 677.869 4389.7 692.074C4377.06 706.136 4360.87 717.074 4341.12 724.886C4321.38 732.557 4298.79 736.392 4273.37 736.392Z" fill="#141414"/>
<path d="M1496.18 413.594L1495.19 413.7L1495.29 414.594H1496.18V413.594ZM1471.04 370.128L1470.46 370.944L1470.47 370.946L1471.04 370.128ZM1371.54 362.031L1371.93 362.953L1371.93 362.953L1371.54 362.031ZM1344.48 382.273L1343.67 381.681L1343.67 381.681L1344.48 382.273ZM1334.89 411.463L1333.89 411.45V411.463H1334.89ZM1341.07 435.114L1340.22 435.639L1340.22 435.645L1340.23 435.652L1341.07 435.114ZM1358.33 452.159L1357.79 452.999L1357.8 453.006L1358.33 452.159ZM1382.41 463.665L1382.07 464.607L1382.07 464.607L1382.41 463.665ZM1409.04 471.548L1409.28 470.578L1409.27 470.575L1409.04 471.548ZM1449.95 481.776L1449.71 482.746L1449.71 482.748L1449.72 482.75L1449.95 481.776ZM1497.46 497.33L1497.07 498.248L1497.07 498.25L1497.46 497.33ZM1538.59 522.045L1537.95 522.817L1537.95 522.821L1538.59 522.045ZM1558.61 675.028L1559.44 675.589L1559.44 675.586L1558.61 675.028ZM1501.94 720.412L1502.34 721.327L1502.34 721.326L1501.94 720.412ZM1324.24 720.838L1323.85 721.759L1323.85 721.76L1324.24 720.838ZM1265.86 674.815L1265.03 675.383L1265.04 675.387L1265.86 674.815ZM1243.27 601.094V600.094H1242.23L1242.27 601.133L1243.27 601.094ZM1321.04 601.094L1322.04 601.019L1321.97 600.094H1321.04V601.094ZM1335.11 639.02L1335.88 638.387L1335.88 638.387L1335.11 639.02ZM1367.28 661.605L1366.93 662.541L1366.93 662.542L1367.28 661.605ZM1457.19 661.392L1457.56 662.322L1457.57 662.32L1457.19 661.392ZM1487.88 639.659L1488.66 640.284L1488.66 640.278L1487.88 639.659ZM1499.17 606.847L1500.17 606.858L1500.17 606.846L1500.17 606.834L1499.17 606.847ZM1489.15 578.722L1488.4 579.377L1488.4 579.384L1489.15 578.722ZM1461.67 559.972L1461.27 560.887L1461.27 560.89L1461.28 560.893L1461.67 559.972ZM1420.76 546.335L1420.51 547.304L1420.51 547.304L1420.76 546.335ZM1371.11 533.551L1371.36 532.583L1371.36 532.583L1371.11 533.551ZM1285.89 491.577L1285.21 492.316L1285.22 492.321L1285.89 491.577ZM1275.66 348.821L1274.85 348.232L1274.85 348.236L1275.66 348.821ZM1332.97 303.864L1333.38 304.779L1333.38 304.777L1332.97 303.864ZM1496.4 303.864L1495.98 304.771L1495.98 304.774L1496.4 303.864ZM1551.58 348.395L1550.76 348.969L1550.77 348.972L1551.58 348.395ZM1572.25 413.594V414.594H1573.27L1573.25 413.576L1572.25 413.594ZM1497.18 413.487C1495.16 394.605 1486.64 379.851 1471.62 369.309L1470.47 370.946C1484.99 381.143 1493.23 395.367 1495.19 413.7L1497.18 413.487ZM1471.62 369.312C1456.78 358.791 1437.52 353.574 1413.94 353.574V355.574C1437.23 355.574 1456.05 360.726 1470.46 370.944L1471.62 369.312ZM1413.94 353.574C1397.37 353.574 1383.09 356.074 1371.15 361.11L1371.93 362.953C1383.57 358.046 1397.56 355.574 1413.94 355.574V353.574ZM1371.15 361.11C1359.23 366.137 1350.05 372.985 1343.67 381.681L1345.29 382.864C1351.41 374.515 1360.27 367.869 1371.93 362.953L1371.15 361.11ZM1343.67 381.681C1337.3 390.378 1334.04 400.312 1333.89 411.45L1335.89 411.476C1336.03 400.739 1339.16 391.213 1345.29 382.864L1343.67 381.681ZM1333.89 411.463C1333.89 420.709 1335.99 428.781 1340.22 435.639L1341.92 434.589C1337.91 428.094 1335.89 420.399 1335.89 411.463H1333.89ZM1340.23 435.652C1344.57 442.459 1350.43 448.24 1357.79 452.999L1358.87 451.32C1351.74 446.703 1346.09 441.12 1341.91 434.576L1340.23 435.652ZM1357.8 453.006C1365.11 457.594 1373.2 461.46 1382.07 464.607L1382.74 462.722C1374 459.62 1366.04 455.815 1358.86 451.312L1357.8 453.006ZM1382.07 464.607C1390.91 467.744 1399.82 470.382 1408.81 472.521L1409.27 470.575C1400.36 468.453 1391.51 465.836 1382.74 462.722L1382.07 464.607ZM1408.8 472.518L1449.71 482.746L1450.19 480.805L1409.28 470.578L1408.8 472.518ZM1449.72 482.75C1466.14 486.572 1481.92 491.738 1497.07 498.248L1497.86 496.411C1482.6 489.853 1466.71 484.65 1450.18 480.802L1449.72 482.75ZM1497.07 498.25C1512.33 504.749 1525.95 512.939 1537.95 522.817L1539.22 521.274C1527.07 511.266 1513.28 502.979 1497.85 496.41L1497.07 498.25ZM1537.95 522.821C1550.06 532.675 1559.63 544.568 1566.67 558.505L1568.46 557.603C1561.29 543.415 1551.54 531.302 1539.22 521.27L1537.95 522.821ZM1566.67 558.505C1573.69 572.402 1577.22 588.719 1577.22 607.486H1579.22C1579.22 588.468 1575.64 571.831 1568.46 557.603L1566.67 558.505ZM1577.22 607.486C1577.22 632.874 1570.73 655.191 1557.78 674.471L1559.44 675.586C1572.63 655.946 1579.22 633.234 1579.22 607.486H1577.22ZM1557.79 674.468C1544.84 693.607 1526.1 708.624 1501.53 719.497L1502.34 721.326C1527.2 710.325 1546.25 695.086 1559.44 675.589L1557.79 674.468ZM1501.54 719.496C1477.12 730.222 1447.51 735.605 1412.66 735.605V737.605C1447.7 737.605 1477.61 732.193 1502.34 721.327L1501.54 719.496ZM1412.66 735.605C1378.81 735.605 1349.48 730.365 1324.63 719.916L1323.85 721.76C1349 732.334 1378.61 737.605 1412.66 737.605V735.605ZM1324.63 719.917C1299.93 709.472 1280.62 694.244 1266.68 674.243L1265.04 675.387C1279.22 695.727 1298.84 711.182 1323.85 721.759L1324.63 719.917ZM1266.68 674.247C1252.89 654.26 1245.4 629.878 1244.27 601.055L1242.27 601.133C1243.42 630.264 1250.99 655.03 1265.03 675.383L1266.68 674.247ZM1243.27 602.094H1321.04V600.094H1243.27V602.094ZM1320.05 601.168C1321.19 616.536 1325.94 629.383 1334.33 639.653L1335.88 638.387C1327.79 628.487 1323.16 616.049 1322.04 601.019L1320.05 601.168ZM1334.33 639.653C1342.69 649.886 1353.57 657.513 1366.93 662.541L1367.63 660.669C1354.57 655.754 1344 648.325 1335.88 638.387L1334.33 639.653ZM1366.93 662.542C1380.41 667.561 1395.44 670.062 1412.02 670.062V668.062C1395.65 668.062 1380.85 665.592 1367.63 660.668L1366.93 662.542ZM1412.02 670.062C1429.31 670.062 1444.49 667.491 1457.56 662.322L1456.83 660.462C1444.04 665.52 1429.11 668.062 1412.02 668.062V670.062ZM1457.57 662.32C1470.76 657.012 1481.14 649.675 1488.66 640.284L1487.09 639.034C1479.83 648.109 1469.76 655.261 1456.82 660.464L1457.57 662.32ZM1488.66 640.278C1496.19 630.721 1500.02 619.567 1500.17 606.858L1498.17 606.835C1498.03 619.126 1494.33 629.847 1487.09 639.04L1488.66 640.278ZM1500.17 606.834C1500.02 595.269 1496.62 585.652 1489.9 578.059L1488.4 579.384C1494.76 586.564 1498.03 595.696 1498.17 606.859L1500.17 606.834ZM1489.91 578.066C1483.25 570.394 1473.95 564.065 1462.06 559.05L1461.28 560.893C1472.97 565.821 1481.99 571.992 1488.4 579.377L1489.91 578.066ZM1462.07 559.056C1450.36 553.915 1436.67 549.354 1421.01 545.366L1420.51 547.304C1436.1 551.271 1449.68 555.801 1461.27 560.887L1462.07 559.056ZM1421.01 545.367L1371.36 532.583L1370.86 534.52L1420.51 547.304L1421.01 545.367ZM1371.36 532.583C1335.53 523.377 1307.28 509.446 1286.55 490.833L1285.22 492.321C1306.25 511.207 1334.82 525.259 1370.86 534.52L1371.36 532.583ZM1286.56 490.837C1266.05 472.158 1255.78 447.368 1255.78 416.364H1253.78C1253.78 447.859 1264.24 473.212 1285.21 492.316L1286.56 490.837ZM1255.78 416.364C1255.78 390.846 1262.68 368.54 1276.47 349.406L1274.85 348.236C1260.79 367.739 1253.78 390.461 1253.78 416.364H1255.78ZM1276.47 349.41C1290.42 330.249 1309.37 315.368 1333.38 304.779L1332.57 302.949C1308.28 313.666 1289.03 328.757 1274.85 348.232L1276.47 349.41ZM1333.38 304.777C1357.38 294.047 1384.58 288.67 1415.01 288.67V286.67C1384.35 286.67 1356.86 292.09 1332.57 302.951L1333.38 304.777ZM1415.01 288.67C1445.86 288.67 1472.84 294.048 1495.98 304.771L1496.82 302.956C1473.37 292.089 1446.09 286.67 1415.01 286.67V288.67ZM1495.98 304.774C1519.28 315.362 1537.52 330.097 1550.76 348.969L1552.4 347.821C1538.94 328.625 1520.39 313.672 1496.81 302.953L1495.98 304.774ZM1550.77 348.972C1563.99 367.69 1570.83 389.225 1571.25 413.611L1573.25 413.576C1572.82 388.815 1565.87 366.884 1552.4 347.818L1550.77 348.972ZM1572.25 412.594H1496.18V414.594H1572.25V412.594ZM1683.42 725.526L1683 726.435L1683.01 726.439L1683.42 725.526ZM1644.21 692.287L1643.38 692.832L1643.38 692.838L1644.21 692.287ZM1640.17 592.358L1639.29 591.866L1639.29 591.866L1640.17 592.358ZM1668.08 563.381L1667.55 562.529L1667.55 562.529L1668.08 563.381ZM1707.92 546.974L1708.16 547.945L1708.17 547.943L1707.92 546.974ZM1754.16 538.665L1754.05 537.67L1754.05 537.67L1754.16 538.665ZM1800.82 533.338L1800.95 534.33L1800.96 534.328L1800.82 533.338ZM1826.81 525.668L1827.35 526.513L1827.35 526.509L1826.81 525.668ZM1820.85 470.696L1821.53 469.962L1821.53 469.962L1820.85 470.696ZM1734.77 469.844L1734.17 469.041L1734.17 469.045L1734.77 469.844ZM1712.61 499.034L1712.47 500.024L1713.29 500.14L1713.55 499.357L1712.61 499.034ZM1640.59 488.807L1639.63 488.532L1639.31 489.636L1640.45 489.797L1640.59 488.807ZM1668.72 438.949L1669.43 439.648L1669.43 439.645L1668.72 438.949ZM1716.66 408.693L1716.99 409.636L1717 409.634L1716.66 408.693ZM1869.21 422.33L1868.66 423.164L1868.67 423.169L1869.21 422.33ZM1900.32 456.634L1899.44 457.108L1899.45 457.115L1900.32 456.634ZM1912.25 730V731H1913.25V730H1912.25ZM1838.11 730H1837.11V731H1838.11V730ZM1838.11 685.043H1839.11V684.043H1838.11V685.043ZM1835.55 685.043V684.043H1834.94L1834.66 684.584L1835.55 685.043ZM1815.73 710.611L1816.42 711.342L1816.42 711.342L1815.73 710.611ZM1783.99 729.574L1784.33 730.512L1784.34 730.509L1783.99 729.574ZM1799.75 670.767L1800.23 671.648L1800.24 671.643L1799.75 670.767ZM1825.96 646.051L1825.11 645.53L1825.1 645.538L1825.96 646.051ZM1835.34 574.034H1836.34V571.915L1834.7 573.262L1835.34 574.034ZM1822.98 579.574L1822.7 578.614L1822.69 578.616L1822.98 579.574ZM1803.8 584.048L1803.98 585.032L1803.98 585.032L1803.8 584.048ZM1764.6 590.014L1764.73 591.005L1764.73 591.005L1764.6 590.014ZM1733.7 597.685L1733.34 596.753L1733.34 596.753L1733.7 597.685ZM1712.18 612.599L1712.95 613.243L1712.95 613.235L1712.18 612.599ZM1719.85 669.062L1719.28 669.882L1719.28 669.882L1719.85 669.062ZM1739.46 735.605C1718.84 735.605 1700.3 731.934 1683.82 724.612L1683.01 726.439C1699.78 733.89 1718.6 737.605 1739.46 737.605V735.605ZM1683.83 724.616C1667.52 717.163 1654.6 706.205 1645.05 691.736L1643.38 692.838C1653.15 707.63 1666.36 718.832 1683 726.435L1683.83 724.616ZM1645.05 691.742C1635.66 677.307 1630.94 659.467 1630.94 638.168H1628.94C1628.94 659.766 1633.73 678.006 1643.38 692.832L1645.05 691.742ZM1630.94 638.168C1630.94 619.819 1634.33 604.732 1641.04 592.85L1639.29 591.866C1632.37 604.132 1628.94 619.585 1628.94 638.168H1630.94ZM1641.04 592.85C1647.77 580.923 1656.96 571.388 1668.6 564.233L1667.55 562.529C1655.62 569.862 1646.2 579.645 1639.29 591.866L1641.04 592.85ZM1668.6 564.233C1680.3 557.047 1693.48 551.615 1708.16 547.945L1707.68 546.004C1692.82 549.72 1679.44 555.226 1667.55 562.529L1668.6 564.233ZM1708.17 547.943C1723.04 544.12 1738.4 541.359 1754.26 539.659L1754.05 537.67C1738.1 539.38 1722.64 542.158 1707.67 546.006L1708.17 547.943ZM1754.26 539.659C1773.44 537.67 1789 535.894 1800.95 534.33L1800.69 532.347C1788.77 533.907 1773.23 535.682 1754.05 537.67L1754.26 539.659ZM1800.96 534.328C1812.93 532.618 1821.77 530.038 1827.35 526.513L1826.28 524.822C1821.06 528.115 1812.57 530.649 1800.68 532.348L1800.96 534.328ZM1827.35 526.509C1833.22 522.749 1836.12 516.939 1836.12 509.261H1834.12C1834.12 516.356 1831.49 521.484 1826.27 524.826L1827.35 526.509ZM1836.12 509.261V507.983H1834.12V509.261H1836.12ZM1836.12 507.983C1836.12 491.724 1831.3 479.002 1821.53 469.962L1820.17 471.43C1829.43 480.004 1834.12 492.139 1834.12 507.983H1836.12ZM1821.53 469.962C1811.76 460.928 1797.78 456.486 1779.73 456.486V458.486C1797.47 458.486 1810.9 462.85 1820.17 471.43L1821.53 469.962ZM1779.73 456.486C1760.7 456.486 1745.48 460.635 1734.17 469.041L1735.36 470.646C1746.22 462.576 1760.97 458.486 1779.73 458.486V456.486ZM1734.17 469.045C1723.09 477.385 1715.57 487.272 1711.66 498.711L1713.55 499.357C1717.32 488.353 1724.57 478.78 1735.37 470.643L1734.17 469.045ZM1712.75 498.044L1640.73 487.817L1640.45 489.797L1712.47 500.024L1712.75 498.044ZM1641.55 489.082C1647.19 469.338 1656.49 452.869 1669.43 439.648L1668 438.249C1654.81 451.733 1645.35 468.503 1639.63 488.532L1641.55 489.082ZM1669.43 439.645C1682.39 426.269 1698.23 416.264 1716.99 409.636L1716.32 407.75C1697.3 414.474 1681.18 424.64 1668 438.253L1669.43 439.645ZM1717 409.634C1735.77 402.86 1756.53 399.466 1779.3 399.466V397.466C1756.33 397.466 1735.33 400.89 1716.32 407.753L1717 409.634ZM1779.3 399.466C1794.99 399.466 1810.61 401.303 1826.16 404.979L1826.62 403.032C1810.92 399.322 1795.14 397.466 1779.3 397.466V399.466ZM1826.16 404.979C1841.67 408.646 1855.84 414.709 1868.66 423.164L1869.76 421.495C1856.74 412.905 1842.35 406.752 1826.62 403.032L1826.16 404.979ZM1868.67 423.169C1881.45 431.452 1891.7 442.757 1899.44 457.108L1901.2 456.159C1893.32 441.533 1882.83 429.969 1869.76 421.49L1868.67 423.169ZM1899.45 457.115C1907.3 471.417 1911.25 489.35 1911.25 510.966H1913.25C1913.25 489.116 1909.26 470.828 1901.2 456.152L1899.45 457.115ZM1911.25 510.966V730H1913.25V510.966H1911.25ZM1912.25 729H1838.11V731H1912.25V729ZM1839.11 730V685.043H1837.11V730H1839.11ZM1838.11 684.043H1835.55V686.043H1838.11V684.043ZM1834.66 684.584C1830.03 693.56 1823.5 701.993 1815.05 709.88L1816.42 711.342C1825.01 703.32 1831.69 694.707 1836.44 685.501L1834.66 684.584ZM1815.05 709.879C1806.78 717.588 1796.32 723.846 1783.63 728.638L1784.34 730.509C1797.22 725.642 1807.92 719.259 1816.42 711.342L1815.05 709.879ZM1783.64 728.636C1771.13 733.273 1756.41 735.605 1739.46 735.605V737.605C1756.59 737.605 1771.56 735.25 1784.33 730.511L1783.64 728.636ZM1759.48 680.929C1775.1 680.929 1788.69 677.848 1800.23 671.648L1799.28 669.886C1788.09 675.902 1774.83 678.929 1759.48 678.929V680.929ZM1800.24 671.643C1811.74 665.316 1820.61 656.957 1826.82 646.564L1825.1 645.538C1819.09 655.6 1810.49 663.719 1799.27 669.891L1800.24 671.643ZM1826.81 646.573C1833.16 636.187 1836.34 624.856 1836.34 612.599H1834.34C1834.34 624.491 1831.26 635.461 1825.11 645.53L1826.81 646.573ZM1836.34 612.599V574.034H1834.34V612.599H1836.34ZM1834.7 573.262C1832.45 575.117 1828.49 576.919 1822.7 578.614L1823.26 580.534C1829.11 578.82 1833.39 576.928 1835.97 574.806L1834.7 573.262ZM1822.69 578.616C1817.05 580.308 1810.7 581.791 1803.62 583.064L1803.98 585.032C1811.11 583.749 1817.54 582.249 1823.27 580.532L1822.69 578.616ZM1803.62 583.064C1796.53 584.34 1789.51 585.475 1782.57 586.467L1782.85 588.447C1789.82 587.451 1796.87 586.313 1803.98 585.032L1803.62 583.064ZM1782.57 586.467C1775.61 587.462 1769.57 588.314 1764.46 589.024L1764.73 591.005C1769.85 590.294 1775.89 589.442 1782.85 588.447L1782.57 586.467ZM1764.46 589.023C1752.89 590.595 1742.52 593.168 1733.34 596.753L1734.07 598.616C1743.07 595.099 1753.29 592.559 1764.73 591.005L1764.46 589.023ZM1733.34 596.753C1724.12 600.355 1716.79 605.418 1711.41 611.964L1712.95 613.235C1718.08 606.996 1725.11 602.116 1734.07 598.616L1733.34 596.753ZM1711.42 611.956C1705.98 618.423 1703.3 626.764 1703.3 636.889H1705.3C1705.3 627.128 1707.87 619.276 1712.95 613.243L1711.42 611.956ZM1703.3 636.889C1703.3 651.374 1708.61 662.426 1719.28 669.882L1720.43 668.243C1710.36 661.211 1705.3 650.814 1705.3 636.889H1703.3ZM1719.28 669.882C1729.86 677.272 1743.28 680.929 1759.48 680.929V678.929C1743.58 678.929 1730.59 675.342 1720.43 668.243L1719.28 669.882ZM2198.4 402.727V401.727H2197.4V402.727H2198.4ZM2275.53 402.727H2276.53V401.727H2275.53V402.727ZM2275.53 730V731H2276.53V730H2275.53ZM2200.75 730H2199.75V731H2200.75V730ZM2200.75 671.832H2201.75V670.832H2200.75V671.832ZM2197.34 671.832V670.832H2196.66L2196.41 671.459L2197.34 671.832ZM2160.9 716.79L2160.34 715.966L2160.33 715.969L2160.9 716.79ZM2042.01 719.986L2041.5 720.847L2041.51 720.852L2042.01 719.986ZM2003.66 678.011L2002.77 678.459L2002.77 678.461L2003.66 678.011ZM1989.81 402.727V401.727H1988.81V402.727H1989.81ZM2066.94 402.727H2067.94V401.727H2066.94V402.727ZM2083.99 648.608L2083.25 649.289L2083.25 649.289L2083.99 648.608ZM2161.76 658.622L2161.3 657.735L2161.3 657.735L2161.76 658.622ZM2187.96 633.906L2187.12 633.374L2187.12 633.377L2187.96 633.906ZM2199.4 592.358V402.727H2197.4V592.358H2199.4ZM2198.4 403.727H2275.53V401.727H2198.4V403.727ZM2274.53 402.727V730H2276.53V402.727H2274.53ZM2275.53 729H2200.75V731H2275.53V729ZM2201.75 730V671.832H2199.75V730H2201.75ZM2200.75 670.832H2197.34V672.832H2200.75V670.832ZM2196.41 671.459C2189.1 689.593 2177.09 704.425 2160.34 715.966L2161.47 717.613C2178.53 705.859 2190.8 690.719 2198.27 672.206L2196.41 671.459ZM2160.33 715.969C2143.77 727.478 2123.31 733.261 2098.9 733.261V735.261C2123.64 735.261 2144.51 729.397 2161.47 717.611L2160.33 715.969ZM2098.9 733.261C2077.61 733.261 2058.82 728.538 2042.51 719.12L2041.51 720.852C2058.16 730.467 2077.3 735.261 2098.9 735.261V733.261ZM2042.52 719.125C2026.36 709.571 2013.71 695.729 2004.55 677.561L2002.77 678.461C2012.08 696.942 2024.99 711.082 2041.5 720.847L2042.52 719.125ZM2004.55 677.564C1995.41 659.269 1990.81 637.129 1990.81 611.108H1988.81C1988.81 637.359 1993.45 659.822 2002.77 678.459L2004.55 677.564ZM1990.81 611.108V402.727H1988.81V611.108H1990.81ZM1989.81 403.727H2066.94V401.727H1989.81V403.727ZM2065.94 402.727V599.176H2067.94V402.727H2065.94ZM2065.94 599.176C2065.94 620.103 2071.68 636.846 2083.25 649.289L2084.72 647.927C2073.57 635.938 2067.94 619.726 2067.94 599.176H2065.94ZM2083.25 649.289C2094.83 661.731 2110.02 667.932 2128.73 667.932V665.932C2110.51 665.932 2095.87 659.916 2084.72 647.927L2083.25 649.289ZM2128.73 667.932C2140.26 667.932 2151.43 665.119 2162.22 659.509L2161.3 657.735C2150.78 663.205 2139.92 665.932 2128.73 665.932V667.932ZM2162.22 659.509C2173.04 653.881 2181.91 645.513 2188.81 634.435L2187.12 633.377C2180.38 644.174 2171.78 652.284 2161.3 657.735L2162.22 659.509ZM2188.81 634.438C2195.89 623.161 2199.4 609.115 2199.4 592.358H2197.4C2197.4 608.839 2193.95 622.492 2187.12 633.374L2188.81 634.438ZM2431.98 730V731H2432.98V730H2431.98ZM2354.85 730H2353.85V731H2354.85V730ZM2354.85 402.727V401.727H2353.85V402.727H2354.85ZM2428.57 402.727H2429.57V401.727H2428.57V402.727ZM2428.57 458.338H2427.57V459.338H2428.57V458.338ZM2432.41 458.338V459.338H2433.08L2433.33 458.718L2432.41 458.338ZM2468.41 414.659L2467.87 413.82L2467.87 413.823L2468.41 414.659ZM2589.01 412.955L2588.51 413.821L2588.52 413.823L2589.01 412.955ZM2628.22 454.929L2627.32 455.379L2627.33 455.384L2628.22 454.929ZM2642.07 521.619L2641.07 521.614V521.619H2642.07ZM2642.07 730V731H2643.07V730H2642.07ZM2564.93 730H2563.93V731H2564.93V730ZM2547.89 482.202L2547.15 482.874L2547.15 482.879L2547.89 482.202ZM2465.22 472.614L2465.71 473.486L2465.71 473.483L2465.22 472.614ZM2440.72 497.969L2439.84 497.495L2439.83 497.503L2440.72 497.969ZM2430.98 538.239V730H2432.98V538.239H2430.98ZM2431.98 729H2354.85V731H2431.98V729ZM2355.85 730V402.727H2353.85V730H2355.85ZM2354.85 403.727H2428.57V401.727H2354.85V403.727ZM2427.57 402.727V458.338H2429.57V402.727H2427.57ZM2428.57 459.338H2432.41V457.338H2428.57V459.338ZM2433.33 458.718C2440.78 440.58 2452.66 426.18 2468.96 415.496L2467.87 413.823C2451.22 424.729 2439.09 439.449 2431.48 457.958L2433.33 458.718ZM2468.96 415.498C2485.38 404.83 2505.71 399.466 2529.99 399.466V397.466C2505.41 397.466 2484.69 402.898 2467.87 413.82L2468.96 415.498ZM2529.99 399.466C2552.43 399.466 2571.93 404.263 2588.51 413.821L2589.51 412.088C2572.57 402.328 2552.72 397.466 2529.99 397.466V399.466ZM2588.52 413.823C2605.24 423.379 2618.17 437.22 2627.32 455.379L2629.11 454.479C2619.79 435.99 2606.59 421.848 2589.51 412.086L2588.52 413.823ZM2627.33 455.384C2636.61 473.532 2641.21 495.596 2641.07 521.614L2643.07 521.625C2643.21 495.37 2638.57 472.973 2629.11 454.473L2627.33 455.384ZM2641.07 521.619V730H2643.07V521.619H2641.07ZM2642.07 729H2564.93V731H2642.07V729ZM2565.93 730V533.551H2563.93V730H2565.93ZM2565.93 533.551C2565.93 511.504 2560.21 494.118 2548.63 481.525L2547.15 482.879C2558.3 495.002 2563.93 511.849 2563.93 533.551H2565.93ZM2548.63 481.529C2537.18 468.923 2521.34 462.665 2501.23 462.665V464.665C2520.89 464.665 2536.15 470.765 2547.15 482.874L2548.63 481.529ZM2501.23 462.665C2487.58 462.665 2475.4 465.683 2464.73 471.744L2465.71 473.483C2476.06 467.612 2487.89 464.665 2501.23 464.665V462.665ZM2464.73 471.742C2454.18 477.664 2445.89 486.258 2439.84 497.495L2441.6 498.443C2447.48 487.52 2455.51 479.211 2465.71 473.486L2464.73 471.742ZM2439.83 497.503C2433.91 508.759 2430.98 522.351 2430.98 538.239H2432.98C2432.98 522.593 2435.87 509.338 2441.6 498.434L2439.83 497.503ZM2758.61 725.526L2758.2 726.435L2758.21 726.439L2758.61 725.526ZM2719.41 692.287L2718.57 692.832L2718.57 692.838L2719.41 692.287ZM2715.36 592.358L2714.49 591.866L2714.49 591.866L2715.36 592.358ZM2743.27 563.381L2742.75 562.529L2742.75 562.529L2743.27 563.381ZM2783.12 546.974L2783.36 547.945L2783.37 547.943L2783.12 546.974ZM2829.35 538.665L2829.25 537.67L2829.25 537.67L2829.35 538.665ZM2876.01 533.338L2876.14 534.33L2876.16 534.328L2876.01 533.338ZM2902.01 525.668L2902.54 526.513L2902.55 526.509L2902.01 525.668ZM2896.04 470.696L2896.72 469.962L2896.72 469.962L2896.04 470.696ZM2809.96 469.844L2809.37 469.041L2809.36 469.045L2809.96 469.844ZM2787.8 499.034L2787.66 500.024L2788.48 500.14L2788.75 499.357L2787.8 499.034ZM2715.79 488.807L2714.83 488.532L2714.51 489.636L2715.65 489.797L2715.79 488.807ZM2743.91 438.949L2744.63 439.648L2744.63 439.645L2743.91 438.949ZM2791.85 408.693L2792.19 409.636L2792.19 409.634L2791.85 408.693ZM2944.41 422.33L2943.86 423.164L2943.87 423.169L2944.41 422.33ZM2975.52 456.634L2974.64 457.108L2974.64 457.115L2975.52 456.634ZM2987.45 730V731H2988.45V730H2987.45ZM2913.3 730H2912.3V731H2913.3V730ZM2913.3 685.043H2914.3V684.043H2913.3V685.043ZM2910.74 685.043V684.043H2910.13L2909.86 684.584L2910.74 685.043ZM2890.93 710.611L2891.61 711.342L2891.61 711.342L2890.93 710.611ZM2859.18 729.574L2859.53 730.512L2859.54 730.509L2859.18 729.574ZM2874.95 670.767L2875.42 671.648L2875.43 671.643L2874.95 670.767ZM2901.16 646.051L2900.3 645.53L2900.3 645.538L2901.16 646.051ZM2910.53 574.034H2911.53V571.915L2909.9 573.262L2910.53 574.034ZM2898.17 579.574L2897.89 578.614L2897.89 578.616L2898.17 579.574ZM2879 584.048L2879.17 585.032L2879.17 585.032L2879 584.048ZM2839.79 590.014L2839.93 591.005L2839.93 591.005L2839.79 590.014ZM2808.9 597.685L2808.53 596.753L2808.53 596.753L2808.9 597.685ZM2787.38 612.599L2788.14 613.243L2788.15 613.235L2787.38 612.599ZM2795.05 669.062L2794.48 669.882L2794.48 669.882L2795.05 669.062ZM2814.65 735.605C2794.03 735.605 2775.49 731.934 2759.02 724.612L2758.21 726.439C2774.97 733.89 2793.79 737.605 2814.65 737.605V735.605ZM2759.03 724.616C2742.72 717.163 2729.8 706.205 2720.24 691.736L2718.57 692.838C2728.34 707.63 2741.56 718.832 2758.2 726.435L2759.03 724.616ZM2720.25 691.742C2710.86 677.307 2706.13 659.467 2706.13 638.168H2704.13C2704.13 659.766 2708.93 678.006 2718.57 692.832L2720.25 691.742ZM2706.13 638.168C2706.13 619.819 2709.52 604.732 2716.23 592.85L2714.49 591.866C2707.56 604.132 2704.13 619.585 2704.13 638.168H2706.13ZM2716.23 592.85C2722.97 580.923 2732.15 571.388 2743.8 564.233L2742.75 562.529C2730.81 569.862 2721.39 579.645 2714.49 591.866L2716.23 592.85ZM2743.8 564.233C2755.49 557.047 2768.68 551.615 2783.36 547.945L2782.87 546.004C2768.01 549.72 2754.63 555.226 2742.75 562.529L2743.8 564.233ZM2783.37 547.943C2798.23 544.12 2813.6 541.359 2829.46 539.659L2829.25 537.67C2813.29 539.38 2797.83 542.158 2782.87 546.006L2783.37 547.943ZM2829.46 539.659C2848.64 537.67 2864.2 535.894 2876.14 534.33L2875.88 532.347C2863.97 533.907 2848.42 535.682 2829.25 537.67L2829.46 539.659ZM2876.16 534.328C2888.12 532.618 2896.96 530.038 2902.54 526.513L2901.47 524.822C2896.26 528.115 2887.77 530.649 2875.87 532.348L2876.16 534.328ZM2902.55 526.509C2908.41 522.749 2911.32 516.939 2911.32 509.261H2909.32C2909.32 516.356 2906.68 521.484 2901.47 524.826L2902.55 526.509ZM2911.32 509.261V507.983H2909.32V509.261H2911.32ZM2911.32 507.983C2911.32 491.724 2906.49 479.002 2896.72 469.962L2895.36 471.43C2904.63 480.004 2909.32 492.139 2909.32 507.983H2911.32ZM2896.72 469.962C2886.96 460.928 2872.97 456.486 2854.92 456.486V458.486C2872.66 458.486 2886.09 462.85 2895.36 471.43L2896.72 469.962ZM2854.92 456.486C2835.89 456.486 2820.67 460.635 2809.37 469.041L2810.56 470.646C2821.41 462.576 2836.17 458.486 2854.92 458.486V456.486ZM2809.36 469.045C2798.29 477.385 2790.77 487.272 2786.86 498.711L2788.75 499.357C2792.51 488.353 2799.76 478.78 2810.56 470.643L2809.36 469.045ZM2787.94 498.044L2715.93 487.817L2715.65 489.797L2787.66 500.024L2787.94 498.044ZM2716.75 489.082C2722.39 469.338 2731.69 452.869 2744.63 439.648L2743.2 438.249C2730 451.733 2720.55 468.503 2714.83 488.532L2716.75 489.082ZM2744.63 439.645C2757.58 426.269 2773.43 416.264 2792.19 409.636L2791.52 407.75C2772.49 414.474 2756.38 424.64 2743.19 438.253L2744.63 439.645ZM2792.19 409.634C2810.96 402.86 2831.72 399.466 2854.49 399.466V397.466C2831.53 397.466 2810.53 400.89 2791.51 407.753L2792.19 409.634ZM2854.49 399.466C2870.18 399.466 2885.8 401.303 2901.35 404.979L2901.81 403.032C2886.11 399.322 2870.34 397.466 2854.49 397.466V399.466ZM2901.35 404.979C2916.87 408.646 2931.03 414.709 2943.86 423.164L2944.96 421.495C2931.93 412.905 2917.55 406.752 2901.81 403.032L2901.35 404.979ZM2943.87 423.169C2956.64 431.452 2966.9 442.757 2974.64 457.108L2976.4 456.159C2968.51 441.533 2958.03 429.969 2944.95 421.49L2943.87 423.169ZM2974.64 457.115C2982.49 471.417 2986.45 489.35 2986.45 510.966H2988.45C2988.45 489.116 2984.45 470.828 2976.39 456.152L2974.64 457.115ZM2986.45 510.966V730H2988.45V510.966H2986.45ZM2987.45 729H2913.3V731H2987.45V729ZM2914.3 730V685.043H2912.3V730H2914.3ZM2913.3 684.043H2910.74V686.043H2913.3V684.043ZM2909.86 684.584C2905.23 693.56 2898.7 701.993 2890.25 709.88L2891.61 711.342C2900.21 703.32 2906.89 694.707 2911.63 685.501L2909.86 684.584ZM2890.25 709.879C2881.98 717.588 2871.51 723.846 2858.83 728.638L2859.54 730.509C2872.42 725.642 2883.12 719.259 2891.61 711.342L2890.25 709.879ZM2858.83 728.636C2846.33 733.273 2831.61 735.605 2814.65 735.605V737.605C2831.78 737.605 2846.75 735.25 2859.53 730.511L2858.83 728.636ZM2834.68 680.929C2850.29 680.929 2863.89 677.848 2875.42 671.648L2874.48 669.886C2863.28 675.902 2850.03 678.929 2834.68 678.929V680.929ZM2875.43 671.643C2886.94 665.316 2895.81 656.957 2902.01 646.564L2900.3 645.538C2894.29 655.6 2885.69 663.719 2874.47 669.891L2875.43 671.643ZM2902.01 646.573C2908.36 636.187 2911.53 624.856 2911.53 612.599H2909.53C2909.53 624.491 2906.46 635.461 2900.3 645.53L2902.01 646.573ZM2911.53 612.599V574.034H2909.53V612.599H2911.53ZM2909.9 573.262C2907.64 575.117 2903.69 576.919 2897.89 578.614L2898.45 580.534C2904.31 578.82 2908.59 576.928 2911.17 574.806L2909.9 573.262ZM2897.89 578.616C2892.25 580.308 2885.89 581.791 2878.82 583.064L2879.17 585.032C2886.31 583.749 2892.74 582.249 2898.46 580.532L2897.89 578.616ZM2878.82 583.064C2871.73 584.34 2864.71 585.475 2857.76 586.467L2858.04 588.447C2865.02 587.451 2872.06 586.313 2879.17 585.032L2878.82 583.064ZM2857.76 586.467C2850.8 587.462 2844.77 588.314 2839.66 589.024L2839.93 591.005C2845.05 590.294 2851.08 589.442 2858.04 588.447L2857.76 586.467ZM2839.66 589.023C2828.09 590.595 2817.71 593.168 2808.53 596.753L2809.26 598.616C2818.27 595.099 2828.49 592.559 2839.93 591.005L2839.66 589.023ZM2808.53 596.753C2799.31 600.355 2791.99 605.418 2786.61 611.964L2788.15 613.235C2793.28 606.996 2800.3 602.116 2809.26 598.616L2808.53 596.753ZM2786.61 611.956C2781.17 618.423 2778.49 626.764 2778.49 636.889H2780.49C2780.49 627.128 2783.07 619.276 2788.14 613.243L2786.61 611.956ZM2778.49 636.889C2778.49 651.374 2783.8 662.426 2794.48 669.882L2795.62 668.243C2785.56 661.211 2780.49 650.814 2780.49 636.889H2778.49ZM2794.48 669.882C2805.05 677.272 2818.48 680.929 2834.68 680.929V678.929C2818.78 678.929 2805.78 675.342 2795.62 668.243L2794.48 669.882ZM3021.7 359.901H3020.7V360.901H3021.7V359.901ZM3021.7 293.636V292.636H3020.7V293.636H3021.7ZM3369.85 293.636H3370.85V292.636H3369.85V293.636ZM3369.85 359.901V360.901H3370.85V359.901H3369.85ZM3234.98 359.901V358.901H3233.98V359.901H3234.98ZM3234.98 730V731H3235.98V730H3234.98ZM3156.57 730H3155.57V731H3156.57V730ZM3156.57 359.901H3157.57V358.901H3156.57V359.901ZM3022.7 359.901V293.636H3020.7V359.901H3022.7ZM3021.7 294.636H3369.85V292.636H3021.7V294.636ZM3368.85 293.636V359.901H3370.85V293.636H3368.85ZM3369.85 358.901H3234.98V360.901H3369.85V358.901ZM3233.98 359.901V730H3235.98V359.901H3233.98ZM3234.98 729H3156.57V731H3234.98V729ZM3157.57 730V359.901H3155.57V730H3157.57ZM3156.57 358.901H3021.7V360.901H3156.57V358.901ZM3433.56 730H3432.56V731H3433.56V730ZM3433.56 402.727V401.727H3432.56V402.727H3433.56ZM3510.69 402.727H3511.69V401.727H3510.69V402.727ZM3510.69 730V731H3511.69V730H3510.69ZM3440.8 344.134L3440.12 344.864L3440.13 344.87L3440.8 344.134ZM3440.8 284.901L3441.48 285.637L3441.49 285.631L3440.8 284.901ZM3503.87 284.901L3503.18 285.625L3503.19 285.631L3503.2 285.637L3503.87 284.901ZM3503.87 344.134L3504.56 344.864L3504.56 344.864L3503.87 344.134ZM3434.56 730V402.727H3432.56V730H3434.56ZM3433.56 403.727H3510.69V401.727H3433.56V403.727ZM3509.69 402.727V730H3511.69V402.727H3509.69ZM3510.69 729H3433.56V731H3510.69V729ZM3472.34 355.278C3460.37 355.278 3450.1 351.32 3441.48 343.397L3440.13 344.87C3449.12 353.14 3459.88 357.278 3472.34 357.278V355.278ZM3441.49 343.403C3432.87 335.343 3428.59 325.731 3428.59 314.517H3426.59C3426.59 326.314 3431.12 336.446 3440.12 344.864L3441.49 343.403ZM3428.59 314.517C3428.59 303.158 3432.87 293.55 3441.48 285.637L3440.13 284.164C3431.12 292.445 3426.59 302.581 3426.59 314.517H3428.59ZM3441.49 285.631C3450.11 277.568 3460.37 273.543 3472.34 273.543V271.543C3459.87 271.543 3449.12 275.756 3440.12 284.17L3441.49 285.631ZM3472.34 273.543C3484.45 273.543 3494.71 277.57 3503.18 285.625L3504.56 284.176C3495.7 275.754 3484.94 271.543 3472.34 271.543V273.543ZM3503.2 285.637C3511.8 293.55 3516.08 303.158 3516.08 314.517H3518.08C3518.08 302.581 3513.56 292.445 3504.55 284.164L3503.2 285.637ZM3516.08 314.517C3516.08 325.731 3511.81 335.343 3503.19 343.403L3504.56 344.864C3513.55 336.446 3518.08 326.314 3518.08 314.517H3516.08ZM3503.19 343.403C3494.72 351.319 3484.46 355.278 3472.34 355.278V357.278C3484.94 357.278 3495.7 353.142 3504.56 344.864L3503.19 343.403ZM3590.01 730H3589.01V731H3590.01V730ZM3590.01 402.727V401.727H3589.01V402.727H3590.01ZM3663.73 402.727H3664.73V401.727H3663.73V402.727ZM3663.73 458.338H3662.73V459.338H3663.73V458.338ZM3667.56 458.338V459.338H3668.26L3668.5 458.68L3667.56 458.338ZM3701.44 414.446L3702 415.278L3702 415.275L3701.44 414.446ZM3813.94 414.659L3813.36 415.474L3813.37 415.48L3813.94 414.659ZM3846.33 458.338L3845.38 458.659L3845.61 459.338H3846.33V458.338ZM3849.74 458.338V459.338H3850.41L3850.66 458.708L3849.74 458.338ZM3886.38 414.872L3886.92 415.719L3886.92 415.718L3886.38 414.872ZM4050.23 730V731H4051.23V730H4050.23ZM3972.89 730H3971.89V731H3972.89V730ZM3956.7 477.727L3956.03 478.477L3956.04 478.482L3956.7 477.727ZM3873.39 480.923L3872.64 480.253L3872.64 480.254L3873.39 480.923ZM3857.83 730V731H3858.83V730H3857.83ZM3782.19 730H3781.19V731H3782.19V730ZM3766.85 478.58L3766.15 479.287L3766.15 479.292L3766.85 478.58ZM3696.97 471.974L3697.49 472.828L3697.5 472.822L3696.97 471.974ZM3675.23 495.625L3676.11 496.097L3676.12 496.092L3675.23 495.625ZM3667.14 730V731H3668.14V730H3667.14ZM3591.01 730V402.727H3589.01V730H3591.01ZM3590.01 403.727H3663.73V401.727H3590.01V403.727ZM3662.73 402.727V458.338H3664.73V402.727H3662.73ZM3663.73 459.338H3667.56V457.338H3663.73V459.338ZM3668.5 458.68C3675.25 440.119 3686.42 425.665 3702 415.278L3700.89 413.614C3684.93 424.25 3673.51 439.057 3666.62 457.996L3668.5 458.68ZM3702 415.275C3717.58 404.749 3736.2 399.466 3757.9 399.466V397.466C3735.86 397.466 3716.84 402.836 3700.88 413.617L3702 415.275ZM3757.9 399.466C3779.9 399.466 3798.36 404.82 3813.36 415.474L3814.52 413.844C3799.12 402.907 3780.23 397.466 3757.9 397.466V399.466ZM3813.37 415.48C3828.53 426.006 3839.19 440.386 3845.38 458.659L3847.27 458.017C3840.96 439.358 3830.04 424.619 3814.51 413.838L3813.37 415.48ZM3846.33 459.338H3849.74V457.338H3846.33V459.338ZM3850.66 458.708C3857.83 440.731 3869.9 426.406 3886.92 415.719L3885.85 414.025C3868.49 424.929 3856.13 439.581 3848.81 457.968L3850.66 458.708ZM3886.92 415.718C3904.06 404.896 3924.4 399.466 3947.96 399.466V397.466C3924.08 397.466 3903.36 402.973 3885.85 414.027L3886.92 415.718ZM3947.96 399.466C3977.84 399.466 4002.15 408.901 4020.97 427.724L4022.39 426.31C4003.14 407.065 3978.3 397.466 3947.96 397.466V399.466ZM4020.97 427.724C4039.76 446.512 4049.23 473.989 4049.23 510.327H4051.23C4051.23 473.653 4041.67 445.591 4022.39 426.31L4020.97 427.724ZM4049.23 510.327V730H4051.23V510.327H4049.23ZM4050.23 729H3972.89V731H4050.23V729ZM3973.89 730V522.259H3971.89V730H3973.89ZM3973.89 522.259C3973.89 501.782 3968.45 486.606 3957.35 476.972L3956.04 478.482C3966.54 487.598 3971.89 502.11 3971.89 522.259H3973.89ZM3957.36 476.977C3946.36 467.285 3932.91 462.452 3917.07 462.452V464.452C3932.47 464.452 3945.44 469.136 3956.03 478.477L3957.36 476.977ZM3917.07 462.452C3898.23 462.452 3883.38 468.356 3872.64 480.253L3874.13 481.593C3884.42 470.195 3898.68 464.452 3917.07 464.452V462.452ZM3872.64 480.254C3862.08 491.977 3856.83 507.218 3856.83 525.881H3858.83C3858.83 507.612 3863.96 492.881 3874.13 481.593L3872.64 480.254ZM3856.83 525.881V730H3858.83V525.881H3856.83ZM3857.83 729H3782.19V731H3857.83V729ZM3783.19 730V519.062H3781.19V730H3783.19ZM3783.19 519.062C3783.19 501.943 3778.01 488.174 3767.55 477.868L3766.15 479.292C3776.15 489.156 3781.19 502.376 3781.19 519.062H3783.19ZM3767.56 477.872C3757.26 467.572 3743.78 462.452 3727.22 462.452V464.452C3743.33 464.452 3756.28 469.417 3766.15 479.287L3767.56 477.872ZM3727.22 462.452C3715.96 462.452 3705.69 465.342 3696.44 471.126L3697.5 472.822C3706.42 467.243 3716.32 464.452 3727.22 464.452V462.452ZM3696.45 471.12C3687.19 476.762 3679.82 484.786 3674.35 495.158L3676.12 496.092C3681.44 486.01 3688.56 478.266 3697.49 472.828L3696.45 471.12ZM3674.35 495.153C3668.86 505.408 3666.14 517.365 3666.14 530.994H3668.14C3668.14 517.635 3670.81 506.013 3676.11 496.097L3674.35 495.153ZM3666.14 530.994V730H3668.14V530.994H3666.14ZM3667.14 729H3590.01V731H3667.14V729ZM4188.35 715.938L4187.85 716.802L4187.86 716.806L4188.35 715.938ZM4133.6 657.557L4132.7 658.008L4132.7 658.01L4133.6 657.557ZM4133.6 479.645L4132.7 479.194L4132.7 479.196L4133.6 479.645ZM4187.72 419.986L4188.24 420.838L4188.24 420.836L4187.72 419.986ZM4326.42 408.267L4326.08 409.206L4326.09 409.21L4326.42 408.267ZM4374.15 438.097L4373.45 438.811L4373.45 438.815L4374.15 438.097ZM4406.96 489.659L4406.03 490.015L4406.03 490.017L4406.96 489.659ZM4418.89 587.457V588.457H4419.89V587.457H4418.89ZM4150.64 587.457H4149.64V588.457H4150.64V587.457ZM4150.64 535.469V534.469H4149.64V535.469H4150.64ZM4344.96 535.469V536.469H4345.97L4345.96 535.459L4344.96 535.469ZM4335.37 496.051L4334.49 496.524L4334.49 496.528L4335.37 496.051ZM4309.16 468.565L4308.65 469.422L4308.65 469.425L4309.16 468.565ZM4228.84 470.057L4229.37 470.903L4229.38 470.898L4228.84 470.057ZM4200.93 499.886L4200.05 499.411L4200.04 499.415L4200.93 499.886ZM4190.91 540.156L4189.91 540.147V540.156H4190.91ZM4201.35 634.545L4200.46 635L4200.46 635.004L4201.35 634.545ZM4230.54 665.653L4230.04 666.519L4230.05 666.523L4230.54 665.653ZM4304.9 671.619L4305.23 672.565L4305.24 672.56L4304.9 671.619ZM4343.68 634.119L4343.79 633.126L4343.01 633.038L4342.74 633.773L4343.68 634.119ZM4415.7 642.216L4416.67 642.448L4416.93 641.348L4415.81 641.222L4415.7 642.216ZM4389.7 692.074L4388.96 691.405L4388.96 691.405L4389.7 692.074ZM4341.12 724.886L4341.49 725.819L4341.49 725.816L4341.12 724.886ZM4273.37 735.392C4240.7 735.392 4212.54 728.604 4188.85 715.069L4187.86 716.806C4211.9 730.544 4240.42 737.392 4273.37 737.392V735.392ZM4188.86 715.073C4165.31 701.394 4147.19 682.079 4134.49 657.104L4132.7 658.01C4145.57 683.319 4163.96 702.924 4187.85 716.802L4188.86 715.073ZM4134.49 657.106C4121.79 631.988 4115.42 602.39 4115.42 568.281H4113.42C4113.42 602.639 4119.84 632.558 4132.7 658.008L4134.49 657.106ZM4115.42 568.281C4115.42 534.744 4121.79 505.358 4134.49 480.094L4132.7 479.196C4119.84 504.784 4113.42 534.489 4113.42 568.281H4115.42ZM4134.49 480.096C4147.34 454.684 4165.25 434.94 4188.24 420.838L4187.19 419.133C4163.87 433.44 4145.71 453.47 4132.7 479.194L4134.49 480.096ZM4188.24 420.836C4211.21 406.601 4238.23 399.466 4269.32 399.466V397.466C4237.91 397.466 4210.52 404.677 4187.19 419.136L4188.24 420.836ZM4269.32 399.466C4289.38 399.466 4308.3 402.715 4326.08 409.206L4326.77 407.328C4308.75 400.751 4289.6 397.466 4269.32 397.466V399.466ZM4326.09 409.21C4343.99 415.553 4359.77 425.418 4373.45 438.811L4374.85 437.382C4360.97 423.787 4344.93 413.765 4326.76 407.324L4326.09 409.21ZM4373.45 438.815C4387.25 452.193 4398.12 469.25 4406.03 490.015L4407.9 489.303C4399.9 468.307 4388.89 450.989 4374.85 437.379L4373.45 438.815ZM4406.03 490.017C4413.93 510.614 4417.89 535.202 4417.89 563.807H4419.89C4419.89 535.025 4415.91 510.182 4407.9 489.301L4406.03 490.017ZM4417.89 563.807V587.457H4419.89V563.807H4417.89ZM4418.89 586.457H4150.64V588.457H4418.89V586.457ZM4151.64 587.457V535.469H4149.64V587.457H4151.64ZM4150.64 536.469H4344.96V534.469H4150.64V536.469ZM4345.96 535.459C4345.82 520.544 4342.59 507.241 4336.25 495.574L4334.49 496.528C4340.66 507.873 4343.82 520.848 4343.96 535.478L4345.96 535.459ZM4336.25 495.578C4329.92 483.773 4321.06 474.476 4309.68 467.706L4308.65 469.425C4319.72 476.007 4328.33 485.034 4334.49 496.524L4336.25 495.578ZM4309.68 467.709C4298.42 460.926 4285.31 457.551 4270.39 457.551V459.551C4285 459.551 4297.75 462.852 4308.65 469.422L4309.68 467.709ZM4270.39 457.551C4254.45 457.551 4240.41 461.43 4228.3 469.216L4229.38 470.898C4241.13 463.343 4254.79 459.551 4270.39 459.551V457.551ZM4228.3 469.211C4216.23 476.831 4206.8 486.901 4200.05 499.411L4201.81 500.362C4208.4 488.156 4217.58 478.34 4229.37 470.903L4228.3 469.211ZM4200.04 499.415C4193.43 511.781 4190.05 525.364 4189.91 540.147L4191.91 540.166C4192.05 525.687 4195.35 512.424 4201.81 500.358L4200.04 499.415ZM4189.91 540.156V585.54H4191.91V540.156H4189.91ZM4189.91 585.54C4189.91 604.694 4193.41 621.193 4200.46 635L4202.24 634.091C4195.37 620.625 4191.91 604.453 4191.91 585.54H4189.91ZM4200.46 635.004C4207.51 648.659 4217.37 659.173 4230.04 666.519L4231.04 664.788C4218.72 657.645 4209.12 647.421 4202.24 634.087L4200.46 635.004ZM4230.05 666.523C4242.72 673.724 4257.53 677.307 4274.43 677.307V675.307C4257.82 675.307 4243.36 671.787 4231.04 664.784L4230.05 666.523ZM4274.43 677.307C4285.75 677.307 4296.02 675.731 4305.23 672.565L4304.58 670.674C4295.61 673.757 4285.56 675.307 4274.43 675.307V677.307ZM4305.24 672.56C4314.45 669.25 4322.46 664.422 4329.24 658.074L4327.87 656.614C4321.3 662.765 4313.53 667.455 4304.56 670.678L4305.24 672.56ZM4329.24 658.074C4336.03 651.709 4341.16 643.833 4344.62 634.466L4342.74 633.773C4339.38 642.871 4334.42 650.478 4327.87 656.614L4329.24 658.074ZM4343.57 635.113L4415.59 643.21L4415.81 641.222L4343.79 633.126L4343.57 635.113ZM4414.73 641.984C4410.22 660.859 4401.63 677.328 4388.96 691.405L4390.45 692.743C4403.35 678.411 4412.09 661.641 4416.67 642.448L4414.73 641.984ZM4388.96 691.405C4376.43 705.339 4360.37 716.194 4340.76 723.957L4341.49 725.816C4361.36 717.954 4377.69 706.933 4390.45 692.742L4388.96 691.405ZM4340.76 723.954C4321.15 731.572 4298.7 735.392 4273.37 735.392V737.392C4298.89 737.392 4321.61 733.542 4341.49 725.818L4340.76 723.954Z" fill="black"/>
<defs>
<linearGradient id="paint0_linear_1124_18521" x1="0" y1="0" x2="1024" y2="1024" gradientUnits="userSpaceOnUse">
<stop stop-color="#EC6A30"/>
<stop offset="1" stop-color="#EE8B39"/>
</linearGradient>
<linearGradient id="paint1_linear_1124_18521" x1="564" y1="283" x2="529" y2="411" gradientUnits="userSpaceOnUse">
<stop stop-color="white" stop-opacity="0.67"/>
<stop offset="1" stop-color="white"/>
</linearGradient>
<linearGradient id="paint2_linear_1124_18521" x1="504" y1="593" x2="497.5" y2="685" gradientUnits="userSpaceOnUse">
<stop stop-color="white" stop-opacity="0.78"/>
<stop offset="1" stop-color="white"/>
</linearGradient>
<linearGradient id="paint3_linear_1124_18521" x1="534" y1="438" x2="523.5" y2="518" gradientUnits="userSpaceOnUse">
<stop stop-color="white" stop-opacity="0.67"/>
<stop offset="1" stop-color="white"/>
</linearGradient>
</defs>
</svg>
