<svg width="1024" height="1024" viewBox="0 0 1024 1024" fill="none" xmlns="http://www.w3.org/2000/svg">
<rect width="1024" height="1024" fill="#F5F5F5"/>
<rect width="1446" height="1446" transform="translate(-211 -211)" fill="white"/>
<rect width="1024" height="1024" fill="url(#paint0_linear_0_1)"/>
<path d="M316.437 313.531C320.823 309.317 323.016 307.21 325.545 305.695C327.883 304.294 330.427 303.27 333.083 302.66C335.956 302 338.997 302 345.08 302H765.312C797.051 302 812.921 302 820.185 308.13C826.768 313.686 830.172 322.142 829.275 330.709C828.284 340.162 816.841 351.158 793.955 373.149L766.563 399.469C762.177 403.683 759.984 405.79 757.455 407.305C755.117 408.706 752.573 409.73 749.917 410.34C747.044 411 744.003 411 737.92 411H305.84C277.762 411 263.724 411 257.298 405.577C251.474 400.662 248.463 393.182 249.257 385.604C250.133 377.241 260.256 367.514 280.502 348.061L316.437 313.531Z" fill="url(#paint1_linear_0_1)"/>
<path d="M256.437 623.531C260.823 619.317 263.016 617.21 265.545 615.695C267.883 614.294 270.427 613.27 273.083 612.66C275.956 612 278.997 612 285.08 612H705.312C737.051 612 752.921 612 760.185 618.13C766.768 623.686 770.172 632.142 769.275 640.709C768.284 650.162 756.841 661.158 733.955 683.149L706.563 709.469C702.177 713.683 699.984 715.79 697.455 717.305C695.117 718.706 692.573 719.73 689.917 720.34C687.044 721 684.003 721 677.92 721H245.84C217.762 721 203.724 721 197.298 715.577C191.474 710.662 188.463 703.182 189.257 695.604C190.133 687.241 200.256 677.514 220.502 658.061L256.437 623.531Z" fill="url(#paint2_linear_0_1)"/>
<path d="M286.437 468.531C290.823 464.317 293.016 462.21 295.545 460.695C297.883 459.294 300.427 458.27 303.083 457.66C305.956 457 308.997 457 315.08 457H735.312C767.051 457 782.921 457 790.185 463.13C796.768 468.686 800.172 477.142 799.275 485.709C798.284 495.162 786.841 506.158 763.955 528.149L736.563 554.469C732.177 558.683 729.984 560.79 727.455 562.305C725.117 563.706 722.573 564.73 719.917 565.34C717.044 566 714.003 566 707.92 566H275.84C247.762 566 233.724 566 227.298 560.577C221.474 555.662 218.463 548.182 219.257 540.604C220.133 532.241 230.256 522.514 250.502 503.061L286.437 468.531Z" fill="url(#paint3_linear_0_1)"/>
<defs>
<linearGradient id="paint0_linear_0_1" x1="0" y1="0" x2="1024" y2="1024" gradientUnits="userSpaceOnUse">
<stop stop-color="#EC6A30"/>
<stop offset="1" stop-color="#EE8B39"/>
</linearGradient>
<linearGradient id="paint1_linear_0_1" x1="564" y1="283" x2="529" y2="411" gradientUnits="userSpaceOnUse">
<stop stop-color="white" stop-opacity="0.67"/>
<stop offset="1" stop-color="white"/>
</linearGradient>
<linearGradient id="paint2_linear_0_1" x1="504" y1="593" x2="497.5" y2="685" gradientUnits="userSpaceOnUse">
<stop stop-color="white" stop-opacity="0.78"/>
<stop offset="1" stop-color="white"/>
</linearGradient>
<linearGradient id="paint3_linear_0_1" x1="534" y1="438" x2="523.5" y2="518" gradientUnits="userSpaceOnUse">
<stop stop-color="white" stop-opacity="0.67"/>
<stop offset="1" stop-color="white"/>
</linearGradient>
</defs>
</svg>
