<svg width="278" height="102" viewBox="0 0 278 102" fill="none" xmlns="http://www.w3.org/2000/svg">
<g clip-path="url(#clip0_800_17923)">
<path d="M253.663 0H24.351C23.4144 0 22.4891 0 21.5551 0.0051C20.7732 0.0102 19.9976 0.0250155 19.2082 0.037485C17.4932 0.0576346 15.7823 0.208274 14.0903 0.488095C12.4007 0.774008 10.764 1.31304 9.2356 2.08695C7.70906 2.8674 6.31421 3.88153 5.10167 5.09253C3.88276 6.30012 2.8667 7.69594 2.09257 9.22631C1.3163 10.7536 0.778032 12.3903 0.496358 14.0798C0.212005 15.7671 0.0589918 17.4739 0.0386921 19.1849C0.0149916 19.9667 0.0124887 20.7511 0 21.5331V80.4744C0.0124887 81.2662 0.0149916 82.0332 0.0386921 82.8253C0.058998 84.5361 0.212011 86.2429 0.496358 87.9301C0.777255 89.6206 1.31555 91.2582 2.09257 92.7861C2.86635 94.3115 3.88255 95.7017 5.10167 96.9025C6.30961 98.1189 7.70536 99.1337 9.2356 99.9082C10.764 100.684 12.4005 101.226 14.0903 101.517C15.7826 101.794 17.4933 101.945 19.2082 101.968C19.9976 101.985 20.7732 101.995 21.5551 101.995C22.4891 102 23.4145 102 24.351 102H253.663C254.581 102 255.513 102 256.431 101.995C257.209 101.995 258.008 101.985 258.786 101.968C260.497 101.946 262.205 101.796 263.894 101.517C265.589 101.224 267.231 100.682 268.767 99.9082C270.296 99.1333 271.69 98.1185 272.897 96.9025C274.113 95.697 275.132 94.3078 275.915 92.7861C276.686 91.2571 277.219 89.6196 277.496 87.9301C277.781 86.2426 277.939 84.5363 277.97 82.8253C277.98 82.0332 277.98 81.2662 277.98 80.4744C278 79.548 278 78.6267 278 77.6852V24.3171C278 23.3833 278 22.4569 277.98 21.5331C277.98 20.7511 277.98 19.9667 277.97 19.1848C277.939 17.4737 277.781 15.7673 277.496 14.0797C277.219 12.3912 276.685 10.7546 275.915 9.22621C274.338 6.15875 271.839 3.66186 268.767 2.08672C267.231 1.3147 265.589 0.775813 263.894 0.487866C262.205 0.206812 260.497 0.0561198 258.786 0.037128C258.008 0.024684 257.209 0.009741 256.431 0.0047685C255.513 0 254.581 0 253.663 0Z" fill="#A6A6A6"/>
<path d="M21.5645 99.768C20.7864 99.768 20.027 99.758 19.255 99.7407C17.6557 99.7199 16.0601 99.5809 14.4813 99.3248C13.0092 99.0716 11.5831 98.6007 10.2501 97.9276C8.92935 97.2601 7.72468 96.3848 6.68229 95.3353C5.62481 94.2982 4.7444 93.0952 4.07597 91.7742C3.40017 90.4446 2.93248 89.0195 2.68918 87.5484C2.42644 85.9677 2.28429 84.3693 2.26395 82.7671C2.24776 82.2293 2.22656 80.4387 2.22656 80.4387V21.5323C2.22656 21.5323 2.24914 19.7692 2.26408 19.2512C2.28356 17.6515 2.42488 16.0557 2.68683 14.4774C2.93058 13.0023 3.39863 11.573 4.0748 10.2391C4.74077 8.91897 5.61629 7.71516 6.6674 6.6743C7.71733 5.62355 8.92585 4.74376 10.2489 4.067C11.5788 3.39606 13.0022 2.92849 14.4714 2.67996C16.0553 2.4213 17.6564 2.28146 19.2613 2.2616L21.5658 2.23047H256.416L258.748 2.26285C260.338 2.28172 261.924 2.42032 263.494 2.67746C264.978 2.92911 266.416 3.39994 267.761 4.07448C270.412 5.43833 272.568 7.59608 273.929 10.2453C274.594 11.57 275.055 12.9877 275.296 14.4501C275.561 16.0413 275.709 17.6497 275.74 19.2625C275.747 19.9846 275.747 20.7603 275.747 21.5323C275.767 22.4886 275.767 23.3987 275.767 24.3164V77.6845C275.767 78.6109 275.767 79.5148 275.747 80.4262C275.747 81.2555 275.747 82.0151 275.737 82.797C275.708 84.381 275.562 85.9606 275.301 87.5234C275.063 89.0051 274.597 90.4414 273.922 91.7819C273.249 93.0885 272.373 94.281 271.328 95.3154C270.285 96.3706 269.078 97.251 267.754 97.9228C266.413 98.6011 264.976 99.0737 263.494 99.3248C261.915 99.5822 260.32 99.7213 258.72 99.7407C257.972 99.758 257.189 99.768 256.428 99.768L253.66 99.7731L21.5645 99.768Z" fill="black"/>
<path d="M105.137 42.214H94.7896L92.3046 49.5401H87.9219L97.7228 22.4355H102.277L112.077 49.5401H107.62L105.137 42.214ZM95.8611 38.8334H104.063L100.02 26.9437H99.9068L95.8611 38.8334Z" fill="white"/>
<path d="M133.245 39.6604C133.245 45.8013 129.953 49.7468 124.985 49.7468C123.727 49.8125 122.475 49.5231 121.374 48.9116C120.273 48.3002 119.366 47.3914 118.758 46.2894H118.664V56.0774H114.602V29.7786H118.534V33.0655H118.609C119.245 31.9688 120.167 31.0648 121.276 30.4496C122.386 29.8344 123.642 29.5311 124.911 29.572C129.934 29.5719 133.245 33.5365 133.245 39.6604ZM129.069 39.6604C129.069 35.6594 126.998 33.0292 123.839 33.0292C120.735 33.0292 118.647 35.7149 118.647 39.6604C118.647 43.6421 120.735 46.3086 123.839 46.3086C126.999 46.3086 129.069 43.6975 129.069 39.6604H129.069Z" fill="white"/>
<path d="M155.027 39.6604C155.027 45.8013 151.734 49.7468 146.767 49.7468C145.508 49.8125 144.257 49.5231 143.155 48.9116C142.054 48.3002 141.147 47.3914 140.539 46.2894H140.445V56.0774H136.383V29.7786H140.315V33.0655H140.39C141.026 31.9688 141.948 31.0648 143.058 30.4496C144.167 29.8344 145.423 29.5311 146.692 29.572C151.715 29.5719 155.027 33.5365 155.027 39.6604ZM150.85 39.6604C150.85 35.6594 148.78 33.0292 145.62 33.0292C142.516 33.0292 140.428 35.7149 140.428 39.6604C140.428 43.6421 142.516 46.3086 145.62 46.3086C148.78 46.3086 150.85 43.6975 150.85 39.6604H150.85Z" fill="white"/>
<path d="M169.424 41.9888C169.725 44.6766 172.34 46.4415 175.914 46.4415C179.338 46.4415 181.802 44.6766 181.802 42.2531C181.802 40.1493 180.316 38.8896 176.798 38.0262L173.28 37.18C168.295 35.9779 165.981 33.6502 165.981 29.8732C165.981 25.1965 170.063 21.9844 175.856 21.9844C181.595 21.9844 185.527 25.1966 185.66 29.8732H181.559C181.313 27.1682 179.074 25.5356 175.801 25.5356C172.528 25.5356 170.289 27.1876 170.289 29.5919C170.289 31.5082 171.719 32.6358 175.218 33.499L178.209 34.2323C183.779 35.5474 186.091 37.7812 186.091 41.7459C186.091 46.8168 182.047 49.9928 175.613 49.9928C169.593 49.9928 165.528 46.8914 165.266 41.9889L169.424 41.9888Z" fill="white"/>
<path d="M194.866 25.1037V29.7804H198.629V32.9926H194.866V43.8868C194.866 45.5792 195.619 46.368 197.274 46.368C197.721 46.3602 198.167 46.3289 198.61 46.2742V49.4672C197.866 49.606 197.11 49.6688 196.354 49.6548C192.347 49.6548 190.784 48.1521 190.784 44.3196V32.9925H187.906V29.7802H190.784V25.1035L194.866 25.1037Z" fill="white"/>
<path d="M200.805 39.6619C200.805 33.4442 204.472 29.5371 210.191 29.5371C215.93 29.5371 219.58 33.4442 219.58 39.6619C219.58 45.8966 215.949 49.7866 210.191 49.7866C204.436 49.7866 200.805 45.8966 200.805 39.6619ZM215.441 39.6619C215.441 35.3967 213.483 32.8793 210.192 32.8793C206.9 32.8793 204.942 35.4159 204.942 39.6619C204.942 43.9441 206.9 46.4423 210.192 46.4423C213.483 46.4423 215.441 43.9441 215.441 39.6619Z" fill="white"/>
<path d="M222.93 29.7786H226.804V33.1421H226.898C227.16 32.0916 227.777 31.1633 228.644 30.5131C229.511 29.8629 230.575 29.5305 231.659 29.5718C232.127 29.5702 232.594 29.6209 233.051 29.7231V33.5173C232.46 33.3369 231.843 33.2541 231.225 33.2721C230.635 33.2482 230.047 33.3521 229.501 33.5767C228.954 33.8013 228.463 34.1412 228.061 34.5731C227.659 35.0051 227.355 35.5188 227.171 36.0791C226.986 36.6393 226.925 37.2328 226.992 37.8188V49.5401H222.93V29.7786Z" fill="white"/>
<path d="M251.783 43.7373C251.337 45.6048 250.227 47.2472 248.66 48.3596C247.092 49.4721 245.174 49.9791 243.261 49.7866C237.503 49.7866 233.93 45.935 233.93 39.7556C233.93 33.5572 237.523 29.5371 243.09 29.5371C248.566 29.5371 252.009 33.2929 252.009 39.2846V40.6743H238.031V40.9195C237.966 41.6467 238.057 42.3794 238.298 43.0688C238.539 43.7581 238.924 44.3885 239.428 44.9179C239.931 45.4473 240.542 45.8636 241.219 46.1393C241.896 46.415 242.624 46.5437 243.355 46.5169C244.315 46.6067 245.278 46.3847 246.102 45.8839C246.925 45.3831 247.565 44.6303 247.926 43.7374L251.783 43.7373ZM238.05 37.8394H247.945C247.981 37.1855 247.882 36.5311 247.653 35.9173C247.424 35.3035 247.071 34.7436 246.615 34.2726C246.159 33.8017 245.611 33.4299 245.004 33.1806C244.398 32.9313 243.746 32.8098 243.09 32.8239C242.429 32.82 241.773 32.9469 241.161 33.1973C240.549 33.4478 239.992 33.8168 239.523 34.2831C239.055 34.7494 238.683 35.3037 238.43 35.9141C238.178 36.5245 238.048 37.1788 238.05 37.8394Z" fill="white"/>
<path d="M93.0538 78.5697L93.2221 76.4804C94.0067 76.7332 94.8257 76.8634 95.6501 76.8664C96.3959 76.8664 96.6839 76.7942 97.0456 76.2887C97.9248 74.451 98.3058 72.4151 98.1505 70.3844C98.1505 68.2228 97.4783 67.5978 95.7711 67.5978C95.3858 67.5978 94.953 67.6227 94.4717 67.6476C93.5529 71.3759 92.0261 74.9279 89.9524 78.1612L87.9559 77.0805C89.9037 74.286 91.3291 71.1628 92.1634 67.8616C90.8461 68.0039 89.5379 68.2209 88.2452 68.5116L87.8125 66.3974C89.279 66.1334 91.0336 65.8943 92.6685 65.7499C93.0046 64.1559 93.2535 62.5448 93.4142 60.9238L95.7711 61.1878C95.554 62.6521 95.2898 64.1188 94.9531 65.5582H95.8909C98.9449 65.5582 100.411 67.0697 100.411 70.2871C100.544 72.7422 100.065 75.1917 99.0171 77.4167C98.7412 77.9281 98.3201 78.3467 97.8067 78.6201C97.2934 78.8934 96.7106 79.0093 96.1315 78.9531C95.0941 78.9462 94.0611 78.8176 93.0538 78.5697ZM100.795 65.6305L102.551 64.4526C104.986 66.7972 106.453 69.9671 106.663 73.3378L104.354 73.6964C104.337 72.1816 104.013 70.686 103.402 69.2998C102.79 67.9135 101.903 66.6653 100.795 65.6305Z" fill="white"/>
<path d="M114.637 78.9058L114.157 76.7443C114.758 76.7941 115.551 76.8165 116.032 76.8165C120.792 76.8165 122.595 75.4743 122.595 73.4796C122.595 71.8958 121.561 70.9844 119.253 70.9844C116.737 71.2148 114.392 72.3597 112.665 74.2018L110.813 73.385C110.463 70.2401 111.183 67.069 112.857 64.3826L114.997 65.0774C113.664 66.8752 113.016 69.0887 113.17 71.3204C115.099 69.9626 117.377 69.1872 119.735 69.0866C122.957 69.0866 124.952 70.7426 124.952 73.4321C124.952 76.8412 122.259 78.9305 115.792 78.9305C115.478 78.9307 115.022 78.9058 114.637 78.9058ZM112.401 62.9658L113.002 60.8516C116.201 61.3402 119.359 62.0626 122.452 63.0131L121.875 65.1024C118.787 64.1075 115.617 63.3924 112.401 62.9658V62.9658Z" fill="white"/>
<path d="M131.911 77.2493C134.39 76.4344 136.617 74.9953 138.378 73.0707C136.983 71.9167 135.477 70.904 133.882 70.0476L135.204 68.3916C136.812 69.2083 138.342 70.172 139.772 71.2703C140.921 69.5975 141.722 67.7118 142.129 65.7246H135.997C134.588 68.0033 132.818 70.0386 130.756 71.7509L129 70.2394C131.968 67.7947 134.268 64.6395 135.685 61.0678L137.994 61.6207C137.729 62.293 137.465 62.9878 137.152 63.6377H143.115L144.823 64.4296C144.408 67.6881 143.119 70.7741 141.092 73.3606C139.064 75.9471 136.373 77.9379 133.305 79.122L131.911 77.2493ZM142.056 60.4925L143.403 59.8426C144.087 60.7565 144.66 61.7478 145.11 62.796L143.595 63.4933C143.214 62.431 142.697 61.4224 142.056 60.4925ZM145.062 60.251L146.432 59.6035C147.125 60.5459 147.714 61.5603 148.188 62.6291L146.673 63.2766C146.27 62.2024 145.729 61.1852 145.062 60.251H145.062Z" fill="white"/>
<path d="M155.587 79.0253L154.361 77.0804C156.839 76.6857 159.08 75.3816 160.645 73.4235C162.211 71.4655 162.988 68.9946 162.825 66.4945H152.726V71.3205H150.297V64.4525H156.332V60.9238H158.76V64.4525H163.257L165.47 65.0775C165.18 71.8958 162.897 77.1054 155.587 79.0253Z" fill="white"/>
<path d="M170.148 64.6221L171.495 62.6523C173.599 63.6123 175.583 64.8132 177.409 66.2308L175.87 68.2952C174.118 66.8451 172.197 65.6118 170.148 64.6221ZM170.605 76.4582C173.547 76.0162 176.341 74.8793 178.754 73.142C181.167 71.4047 183.13 69.1172 184.479 66.4698L186.066 68.2479C184.6 70.9815 182.528 73.3439 180.006 75.1538C177.485 76.9638 174.582 78.1732 171.52 78.6894L170.605 76.4582Z" fill="white"/>
<path d="M205.773 77.6107H190.648V63.3242H205.773L205.773 77.6107ZM193.03 65.5331V75.4019H203.368V65.5331H193.03Z" fill="white"/>
<path d="M227.422 71.198H210.422V68.75H227.422V71.198Z" fill="white"/>
<path d="M233.211 60.9963H235.59V67.1422C238.755 68.4572 241.824 69.9899 244.776 71.7292L243.429 73.8408C240.928 72.2423 238.307 70.8378 235.59 69.6398V78.906H233.211V60.9963ZM238.86 62.2937L240.279 61.6213C240.974 62.6393 241.548 63.735 241.988 64.886L240.424 65.5833C240.047 64.4237 239.522 63.3179 238.86 62.2937H238.86ZM241.601 61.2602L243.045 60.5879C243.775 61.6 244.38 62.6961 244.848 63.8525L243.285 64.5498C242.856 63.3906 242.29 62.2864 241.601 61.2602H241.601Z" fill="white"/>
<path d="M63.2601 51.7664C63.2876 49.638 63.8538 47.5512 64.9061 45.7C65.9584 43.8488 67.4626 42.2935 69.2786 41.1787C68.1249 39.5335 66.6029 38.1796 64.8335 37.2245C63.0641 36.2694 61.0959 35.7394 59.0855 35.6766C54.7968 35.2271 50.6391 38.2389 48.4537 38.2389C46.226 38.2389 42.8612 35.7212 39.2378 35.7956C36.8941 35.8713 34.61 36.5517 32.6081 37.7708C30.6061 38.9898 28.9545 40.7059 27.8143 42.7517C22.875 51.2902 26.5592 63.8389 31.2907 70.7407C33.6579 74.1204 36.4246 77.8955 40.0446 77.7616C43.5871 77.6149 44.9101 75.5062 49.1862 75.5062C53.4226 75.5062 54.6638 77.7616 58.3574 77.6765C62.1586 77.6149 64.5536 74.2819 66.8377 70.8702C68.5386 68.4621 69.8474 65.8006 70.7157 62.9843C68.5073 62.0517 66.6227 60.4906 65.2969 58.4958C63.9711 56.5009 63.2627 54.1605 63.2601 51.7664Z" fill="white"/>
<path d="M56.2837 31.1374C58.3563 28.6532 59.3774 25.4601 59.1301 22.2363C55.9636 22.5684 53.0387 24.0794 50.9381 26.4683C49.9111 27.6354 49.1245 28.9931 48.6233 30.4639C48.1221 31.9346 47.9161 33.4896 48.0172 35.0399C49.601 35.0562 51.1678 34.7134 52.5997 34.0374C54.0316 33.3615 55.2912 32.3699 56.2837 31.1374Z" fill="white"/>
</g>
<defs>
<clipPath id="clip0_800_17923">
<rect width="278" height="102" fill="white"/>
</clipPath>
</defs>
</svg>
