<svg width="83" height="82" viewBox="0 0 83 82" fill="none" xmlns="http://www.w3.org/2000/svg">
<path d="M15.8281 81.9829H67.0596C71.9023 81.9829 75.6123 80.6943 78.1895 78.1172C80.7666 75.5684 82.0552 71.8867 82.0552 67.0723V15.6709C82.0552 10.8564 80.7666 7.1748 78.1895 4.62598C75.6123 2.04883 71.9023 0.760254 67.0596 0.760254H15.8281C10.9854 0.760254 7.27539 2.04883 4.69824 4.62598C2.12109 7.1748 0.83252 10.8564 0.83252 15.6709V67.0723C0.83252 71.8867 2.12109 75.5684 4.69824 78.1172C7.27539 80.6943 10.9854 81.9829 15.8281 81.9829ZM31.376 22.3403C33.8115 22.3403 35.8931 22.9492 37.6206 24.167C39.3765 25.3848 40.7358 26.8574 41.6987 28.585C42.6616 26.8574 44.0068 25.3848 45.7344 24.167C47.4902 22.9492 49.5718 22.3403 51.979 22.3403C54.3296 22.3403 56.4395 22.9067 58.3086 24.0396C60.2061 25.1724 61.707 26.7441 62.8115 28.7549C63.916 30.7373 64.4683 33.0454 64.4683 35.6792C64.4683 38.2847 63.9585 40.7627 62.939 43.1133C61.9194 45.4355 60.5884 47.6162 58.9458 49.6553C57.3315 51.6943 55.604 53.5352 53.7632 55.1777C51.9224 56.8203 50.1523 58.2505 48.4531 59.4683C46.7822 60.686 45.3804 61.6489 44.2476 62.3569C43.8511 62.5552 43.4263 62.7817 42.9731 63.0366C42.52 63.2632 42.1094 63.3765 41.7412 63.3765C41.373 63.3765 40.9482 63.2632 40.4668 63.0366C39.9854 62.7817 39.5464 62.5552 39.1499 62.3569C38.0171 61.6489 36.6011 60.686 34.9019 59.4683C33.2026 58.2505 31.4326 56.8203 29.5918 55.1777C27.751 53.5352 26.0093 51.6943 24.3667 49.6553C22.7524 47.6162 21.4355 45.4355 20.416 43.1133C19.4248 40.7627 18.9292 38.2847 18.9292 35.6792C18.9292 33.0454 19.4673 30.7373 20.5435 28.7549C21.6479 26.7441 23.1348 25.1724 25.0039 24.0396C26.9014 22.9067 29.0254 22.3403 31.376 22.3403Z" fill="#F05757"/>
</svg>
