<svg width="54" height="82" viewBox="0 0 54 82" fill="none" xmlns="http://www.w3.org/2000/svg">
<path d="M9.15869 81.7705H44.9272C47.5044 81.7705 49.5293 81.0342 51.002 79.5615C52.5029 78.1172 53.2534 76.064 53.2534 73.4019V72.6372C53.2534 69.9185 52.6587 67.228 51.4692 64.5659C50.2798 61.9038 48.793 59.3833 47.0088 57.0044C45.2529 54.5972 43.4688 52.4448 41.6562 50.5474C39.8438 48.6216 38.3286 47.0356 37.1108 45.7896C35.6665 44.3735 34.9585 42.8584 34.9868 41.2441C35.0151 39.6016 35.7231 38.0864 37.1108 36.6987C38.3286 35.481 39.8438 33.9233 41.6562 32.0259C43.4688 30.1001 45.2529 27.9478 47.0088 25.5688C48.793 23.1899 50.2798 20.6694 51.4692 18.0073C52.6587 15.3169 53.2534 12.5981 53.2534 9.85107V9.21387C53.2534 6.55176 52.5029 4.49854 51.002 3.0542C49.5293 1.58154 47.5044 0.845215 44.9272 0.845215H9.15869C6.60986 0.845215 4.58496 1.58154 3.08398 3.0542C1.58301 4.49854 0.83252 6.55176 0.83252 9.21387V9.85107C0.83252 12.5981 1.42725 15.3169 2.6167 18.0073C3.80615 20.6694 5.27881 23.1899 7.03467 25.5688C8.81885 27.9478 10.6172 30.1001 12.4297 32.0259C14.2422 33.9233 15.7573 35.481 16.9751 36.6987C18.3628 38.0864 19.0708 39.6016 19.0991 41.2441C19.1274 42.8584 18.4194 44.3735 16.9751 45.7896C15.7573 47.0356 14.2422 48.6216 12.4297 50.5474C10.6172 52.4448 8.81885 54.5972 7.03467 57.0044C5.27881 59.3833 3.80615 61.9038 2.6167 64.5659C1.42725 67.228 0.83252 69.9185 0.83252 72.6372V73.4019C0.83252 76.064 1.58301 78.1172 3.08398 79.5615C4.58496 81.0342 6.60986 81.7705 9.15869 81.7705ZM13.3218 73.6567C12.2456 73.6567 11.5659 73.1753 11.2827 72.2124C10.9995 71.2778 11.2261 70.4424 11.9624 69.7061L23.8145 58.0239C24.3242 57.5425 24.6499 57.1602 24.7915 56.877C24.9614 56.5938 25.0464 56.0415 25.0464 55.2202V38.5254C25.0464 37.3643 24.8765 36.3872 24.5366 35.5942C24.2251 34.8013 23.6445 34.0225 22.7949 33.2578C21.5771 32.1816 20.1753 30.9214 18.5894 29.4771C17.0034 28.0044 15.644 26.6309 14.5112 25.3564C13.8315 24.6484 13.6191 23.9121 13.874 23.1475C14.1289 22.3828 14.752 22.0005 15.7432 22.0005H38.3428C39.334 22.0005 39.957 22.3828 40.2119 23.1475C40.4668 23.9121 40.2544 24.6484 39.5747 25.3564C38.4136 26.6309 37.04 28.0044 35.4541 29.4771C33.8965 30.9214 32.5088 32.1816 31.291 33.2578C30.4414 34.0225 29.8608 34.8013 29.5493 35.5942C29.2378 36.3872 29.082 37.3643 29.082 38.5254V55.2202C29.082 56.0415 29.1528 56.5938 29.2944 56.877C29.436 57.1602 29.7617 57.5425 30.2715 58.0239L42.1235 69.7061C42.8599 70.4424 43.0864 71.2778 42.8032 72.2124C42.52 73.1753 41.8403 73.6567 40.7642 73.6567H13.3218Z" fill="black"/>
</svg>
